<mxfile host="app.diagrams.net" modified="2023-07-20T07:13:45.328Z" agent="Mozilla/5.0 (Macintosh; Intel Mac OS X 10_15_7) AppleWebKit/537.36 (KHTML, like Gecko) Chrome/114.0.0.0 Safari/537.36" etag="O3UwnZcbCdSTS5OkzV-L" version="21.6.2" type="github">
  <diagram id="kgpKYQtTHZ0yAKxKKP6v" name="Page-1">
    <mxGraphModel dx="4558" dy="690" grid="1" gridSize="2" guides="1" tooltips="1" connect="1" arrows="1" fold="1" page="0" pageScale="1" pageWidth="850" pageHeight="1100" background="none" math="0" shadow="0">
      <root>
        <mxCell id="0" />
        <mxCell id="1" parent="0" />
        <mxCell id="afariw2JvGyVfo-4Ed1I-1" value="" style="ellipse;whiteSpace=wrap;html=1;labelBackgroundColor=none;" parent="1" vertex="1">
          <mxGeometry x="180" y="160" width="610" height="340" as="geometry" />
        </mxCell>
        <mxCell id="afariw2JvGyVfo-4Ed1I-3" value="客户端" style="rounded=1;whiteSpace=wrap;html=1;labelBackgroundColor=none;fillColor=#d5e8d4;strokeColor=#82b366;" parent="1" vertex="1">
          <mxGeometry x="75.75" y="728" width="668.5" height="100" as="geometry" />
        </mxCell>
        <mxCell id="afariw2JvGyVfo-4Ed1I-5" value="&lt;b&gt;Android&lt;/b&gt;" style="text;html=1;align=center;verticalAlign=middle;resizable=0;points=[];autosize=1;strokeColor=none;fillColor=none;labelBackgroundColor=none;" parent="1" vertex="1">
          <mxGeometry x="170" y="800" width="70" height="30" as="geometry" />
        </mxCell>
        <mxCell id="afariw2JvGyVfo-4Ed1I-4" value="" style="verticalLabelPosition=bottom;verticalAlign=top;html=1;shadow=0;dashed=0;strokeWidth=1;shape=mxgraph.android.phone2;labelBackgroundColor=none;" parent="1" vertex="1">
          <mxGeometry x="190" y="740" width="30" height="60" as="geometry" />
        </mxCell>
        <mxCell id="afariw2JvGyVfo-4Ed1I-6" value="" style="verticalLabelPosition=bottom;verticalAlign=top;html=1;shadow=0;dashed=0;strokeWidth=1;shape=mxgraph.android.phone2;labelBackgroundColor=none;" parent="1" vertex="1">
          <mxGeometry x="550" y="740" width="30" height="60" as="geometry" />
        </mxCell>
        <mxCell id="afariw2JvGyVfo-4Ed1I-7" value="IOS" style="text;html=1;align=center;verticalAlign=middle;resizable=0;points=[];autosize=1;strokeColor=none;fillColor=none;fontStyle=1;labelBackgroundColor=none;" parent="1" vertex="1">
          <mxGeometry x="544" y="802" width="40" height="30" as="geometry" />
        </mxCell>
        <mxCell id="afariw2JvGyVfo-4Ed1I-8" value="网络层（SLB）" style="rounded=1;whiteSpace=wrap;html=1;labelBackgroundColor=none;fillColor=#d5e8d4;strokeColor=#82b366;" parent="1" vertex="1">
          <mxGeometry x="80" y="860" width="660" height="50" as="geometry" />
        </mxCell>
        <mxCell id="afariw2JvGyVfo-4Ed1I-9" value="&lt;b&gt;服务层&lt;/b&gt;" style="rounded=1;whiteSpace=wrap;html=1;align=left;labelBackgroundColor=none;fillColor=#d5e8d4;strokeColor=#82b366;" parent="1" vertex="1">
          <mxGeometry x="80" y="940" width="660" height="350" as="geometry" />
        </mxCell>
        <mxCell id="afariw2JvGyVfo-4Ed1I-10" value="" style="verticalLabelPosition=bottom;verticalAlign=top;html=1;shape=mxgraph.basic.patternFillRect;fillStyle=diag;step=5;fillStrokeWidth=0.2;fillStrokeColor=#dddddd;dashed=1;labelBackgroundColor=none;fillColor=#d5e8d4;strokeColor=#82b366;" parent="1" vertex="1">
          <mxGeometry x="150" y="980" width="560" height="50" as="geometry" />
        </mxCell>
        <mxCell id="afariw2JvGyVfo-4Ed1I-11" value="" style="verticalLabelPosition=bottom;verticalAlign=top;html=1;shape=mxgraph.basic.patternFillRect;fillStyle=diag;step=5;fillStrokeWidth=0.2;fillStrokeColor=#dddddd;dashed=1;labelBackgroundColor=none;fillColor=#d5e8d4;strokeColor=#82b366;" parent="1" vertex="1">
          <mxGeometry x="150" y="1050" width="560" height="50" as="geometry" />
        </mxCell>
        <mxCell id="afariw2JvGyVfo-4Ed1I-12" value="" style="verticalLabelPosition=bottom;verticalAlign=top;html=1;shape=mxgraph.basic.patternFillRect;fillStyle=diag;step=5;fillStrokeWidth=0.2;fillStrokeColor=#dddddd;dashed=1;labelBackgroundColor=none;fillColor=#d5e8d4;strokeColor=#82b366;" parent="1" vertex="1">
          <mxGeometry x="150" y="1120" width="560" height="50" as="geometry" />
        </mxCell>
        <mxCell id="afariw2JvGyVfo-4Ed1I-16" value="协议" style="text;html=1;strokeColor=none;fillColor=none;align=center;verticalAlign=middle;whiteSpace=wrap;rounded=0;labelBackgroundColor=none;" parent="1" vertex="1">
          <mxGeometry x="150" y="990" width="60" height="30" as="geometry" />
        </mxCell>
        <mxCell id="afariw2JvGyVfo-4Ed1I-18" value="运行环境" style="text;html=1;strokeColor=none;fillColor=none;align=center;verticalAlign=middle;whiteSpace=wrap;rounded=0;labelBackgroundColor=none;" parent="1" vertex="1">
          <mxGeometry x="150" y="1060" width="60" height="30" as="geometry" />
        </mxCell>
        <mxCell id="afariw2JvGyVfo-4Ed1I-25" value="https" style="rounded=1;whiteSpace=wrap;html=1;labelBackgroundColor=none;fillColor=#f8cecc;strokeColor=#b85450;" parent="1" vertex="1">
          <mxGeometry x="240" y="990" width="50" height="30" as="geometry" />
        </mxCell>
        <mxCell id="afariw2JvGyVfo-4Ed1I-26" value="dubbo" style="rounded=1;whiteSpace=wrap;html=1;labelBackgroundColor=none;fillColor=#f8cecc;strokeColor=#b85450;" parent="1" vertex="1">
          <mxGeometry x="410" y="990" width="50" height="30" as="geometry" />
        </mxCell>
        <mxCell id="afariw2JvGyVfo-4Ed1I-27" value="Linux" style="rounded=1;whiteSpace=wrap;html=1;labelBackgroundColor=none;fillColor=#f8cecc;strokeColor=#b85450;" parent="1" vertex="1">
          <mxGeometry x="240" y="1060" width="50" height="30" as="geometry" />
        </mxCell>
        <mxCell id="afariw2JvGyVfo-4Ed1I-28" value="JDK" style="rounded=1;whiteSpace=wrap;html=1;labelBackgroundColor=none;fillColor=#f8cecc;strokeColor=#b85450;" parent="1" vertex="1">
          <mxGeometry x="405" y="1060" width="50" height="30" as="geometry" />
        </mxCell>
        <mxCell id="afariw2JvGyVfo-4Ed1I-29" value="Tomcat" style="rounded=1;whiteSpace=wrap;html=1;labelBackgroundColor=none;fillColor=#f8cecc;strokeColor=#b85450;" parent="1" vertex="1">
          <mxGeometry x="540" y="1060" width="50" height="30" as="geometry" />
        </mxCell>
        <mxCell id="afariw2JvGyVfo-4Ed1I-30" value="开发环境" style="text;html=1;strokeColor=none;fillColor=none;align=center;verticalAlign=middle;whiteSpace=wrap;rounded=0;labelBackgroundColor=none;" parent="1" vertex="1">
          <mxGeometry x="150" y="1130" width="60" height="30" as="geometry" />
        </mxCell>
        <mxCell id="afariw2JvGyVfo-4Ed1I-33" value="Java" style="rounded=1;whiteSpace=wrap;html=1;labelBackgroundColor=none;fillColor=#f8cecc;strokeColor=#b85450;" parent="1" vertex="1">
          <mxGeometry x="240" y="1130" width="50" height="30" as="geometry" />
        </mxCell>
        <mxCell id="afariw2JvGyVfo-4Ed1I-34" value="SQL" style="rounded=1;whiteSpace=wrap;html=1;labelBackgroundColor=none;fillColor=#f8cecc;strokeColor=#b85450;" parent="1" vertex="1">
          <mxGeometry x="540" y="1130" width="50" height="30" as="geometry" />
        </mxCell>
        <mxCell id="afariw2JvGyVfo-4Ed1I-35" value="live-reward-api" style="rounded=1;whiteSpace=wrap;html=1;labelBackgroundColor=none;fillColor=#f8cecc;strokeColor=#b85450;" parent="1" vertex="1">
          <mxGeometry x="150" y="1200" width="130" height="60" as="geometry" />
        </mxCell>
        <mxCell id="afariw2JvGyVfo-4Ed1I-36" value="基础组件" style="rounded=1;whiteSpace=wrap;html=1;verticalAlign=top;labelBackgroundColor=none;fillColor=#d5e8d4;strokeColor=#82b366;" parent="1" vertex="1">
          <mxGeometry x="760" y="730" width="110" height="660" as="geometry" />
        </mxCell>
        <mxCell id="afariw2JvGyVfo-4Ed1I-37" value="&lt;b&gt;存储层&lt;/b&gt;" style="rounded=1;whiteSpace=wrap;html=1;align=left;labelBackgroundColor=none;fillColor=#d5e8d4;strokeColor=#82b366;" parent="1" vertex="1">
          <mxGeometry x="80" y="1300" width="665" height="90" as="geometry" />
        </mxCell>
        <mxCell id="afariw2JvGyVfo-4Ed1I-39" value="MySQL" style="verticalAlign=top;verticalLabelPosition=bottom;labelPosition=center;align=center;html=1;outlineConnect=0;gradientDirection=north;strokeWidth=2;shape=mxgraph.networks.storage;labelBackgroundColor=none;fillColor=#1ba1e2;fontColor=#ffffff;strokeColor=#006EAF;" parent="1" vertex="1">
          <mxGeometry x="172.25" y="1320" width="50" height="50" as="geometry" />
        </mxCell>
        <mxCell id="afariw2JvGyVfo-4Ed1I-40" value="Redis" style="verticalAlign=top;verticalLabelPosition=bottom;labelPosition=center;align=center;html=1;outlineConnect=0;gradientDirection=north;strokeWidth=2;shape=mxgraph.networks.storage;labelBackgroundColor=none;fillColor=#1ba1e2;fontColor=#ffffff;strokeColor=#006EAF;" parent="1" vertex="1">
          <mxGeometry x="622.5" y="1320" width="50" height="50" as="geometry" />
        </mxCell>
        <mxCell id="afariw2JvGyVfo-4Ed1I-41" value="Spring Boot" style="rounded=1;whiteSpace=wrap;html=1;labelBackgroundColor=none;fillColor=#f8cecc;strokeColor=#b85450;" parent="1" vertex="1">
          <mxGeometry x="780" y="780" width="70" height="30" as="geometry" />
        </mxCell>
        <mxCell id="afariw2JvGyVfo-4Ed1I-42" value="Cat" style="rounded=1;whiteSpace=wrap;html=1;labelBackgroundColor=none;fillColor=#f8cecc;strokeColor=#b85450;" parent="1" vertex="1">
          <mxGeometry x="780" y="840" width="70" height="30" as="geometry" />
        </mxCell>
        <mxCell id="afariw2JvGyVfo-4Ed1I-43" value="Kafka" style="rounded=1;whiteSpace=wrap;html=1;labelBackgroundColor=none;fillColor=#f8cecc;strokeColor=#b85450;" parent="1" vertex="1">
          <mxGeometry x="780" y="910" width="70" height="30" as="geometry" />
        </mxCell>
        <mxCell id="afariw2JvGyVfo-4Ed1I-44" value="Dubbo" style="rounded=1;whiteSpace=wrap;html=1;labelBackgroundColor=none;fillColor=#f8cecc;strokeColor=#b85450;" parent="1" vertex="1">
          <mxGeometry x="780" y="980" width="70" height="30" as="geometry" />
        </mxCell>
        <mxCell id="afariw2JvGyVfo-4Ed1I-45" value="Apollo" style="rounded=1;whiteSpace=wrap;html=1;labelBackgroundColor=none;fillColor=#f8cecc;strokeColor=#b85450;" parent="1" vertex="1">
          <mxGeometry x="780" y="1050" width="70" height="30" as="geometry" />
        </mxCell>
        <mxCell id="afariw2JvGyVfo-4Ed1I-56" value="展示层" style="rounded=1;whiteSpace=wrap;html=1;align=left;labelBackgroundColor=none;fillColor=#d5e8d4;strokeColor=#82b366;" parent="1" vertex="1">
          <mxGeometry x="-75" y="7670" width="1155" height="120" as="geometry" />
        </mxCell>
        <mxCell id="afariw2JvGyVfo-4Ed1I-57" value="系统功能模块" style="rounded=1;whiteSpace=wrap;html=1;align=center;verticalAlign=top;labelBackgroundColor=none;fillColor=#d5e8d4;strokeColor=#82b366;" parent="1" vertex="1">
          <mxGeometry x="95" y="7830" width="825" height="610" as="geometry" />
        </mxCell>
        <mxCell id="afariw2JvGyVfo-4Ed1I-58" value="依赖系统" style="rounded=1;whiteSpace=wrap;html=1;verticalAlign=top;labelBackgroundColor=none;fillColor=#d5e8d4;strokeColor=#82b366;" parent="1" vertex="1">
          <mxGeometry x="-75" y="7830" width="155" height="600" as="geometry" />
        </mxCell>
        <mxCell id="afariw2JvGyVfo-4Ed1I-59" value="支撑组件" style="rounded=1;whiteSpace=wrap;html=1;verticalAlign=top;labelBackgroundColor=none;fillColor=#d5e8d4;strokeColor=#82b366;" parent="1" vertex="1">
          <mxGeometry x="930" y="7840" width="150" height="590" as="geometry" />
        </mxCell>
        <mxCell id="afariw2JvGyVfo-4Ed1I-60" value="存储" style="rounded=1;whiteSpace=wrap;html=1;labelBackgroundColor=none;fillColor=#d5e8d4;strokeColor=#82b366;" parent="1" vertex="1">
          <mxGeometry x="-75" y="8450" width="1155" height="100" as="geometry" />
        </mxCell>
        <mxCell id="afariw2JvGyVfo-4Ed1I-62" value="获取礼物面板" style="rounded=1;whiteSpace=wrap;html=1;labelBackgroundColor=none;fillColor=#f8cecc;strokeColor=#b85450;" parent="1" vertex="1">
          <mxGeometry x="95" y="7695" width="120" height="60" as="geometry" />
        </mxCell>
        <mxCell id="afariw2JvGyVfo-4Ed1I-63" value="直播间打赏" style="rounded=1;whiteSpace=wrap;html=1;labelBackgroundColor=none;fillColor=#f8cecc;strokeColor=#b85450;" parent="1" vertex="1">
          <mxGeometry x="245" y="7695" width="120" height="60" as="geometry" />
        </mxCell>
        <mxCell id="afariw2JvGyVfo-4Ed1I-64" value="动态打赏" style="rounded=1;whiteSpace=wrap;html=1;labelBackgroundColor=none;fillColor=#f8cecc;strokeColor=#b85450;" parent="1" vertex="1">
          <mxGeometry x="405" y="7695" width="120" height="60" as="geometry" />
        </mxCell>
        <mxCell id="afariw2JvGyVfo-4Ed1I-65" value="im打赏" style="rounded=1;whiteSpace=wrap;html=1;labelBackgroundColor=none;fillColor=#f8cecc;strokeColor=#b85450;" parent="1" vertex="1">
          <mxGeometry x="552.5" y="7695" width="120" height="60" as="geometry" />
        </mxCell>
        <mxCell id="afariw2JvGyVfo-4Ed1I-66" value="查看礼物面板" style="rounded=1;whiteSpace=wrap;html=1;labelBackgroundColor=none;fillColor=#f8cecc;strokeColor=#b85450;" parent="1" vertex="1">
          <mxGeometry x="705" y="7695" width="120" height="60" as="geometry" />
        </mxCell>
        <mxCell id="afariw2JvGyVfo-4Ed1I-72" value="用户系统" style="rounded=1;whiteSpace=wrap;html=1;labelBackgroundColor=none;fillColor=#f8cecc;strokeColor=#b85450;" parent="1" vertex="1">
          <mxGeometry x="-60" y="7900" width="120" height="60" as="geometry" />
        </mxCell>
        <mxCell id="afariw2JvGyVfo-4Ed1I-73" value="直播间" style="rounded=1;whiteSpace=wrap;html=1;labelBackgroundColor=none;fillColor=#f8cecc;strokeColor=#b85450;" parent="1" vertex="1">
          <mxGeometry x="-60" y="7980" width="120" height="60" as="geometry" />
        </mxCell>
        <mxCell id="afariw2JvGyVfo-4Ed1I-74" value="公会" style="rounded=1;whiteSpace=wrap;html=1;labelBackgroundColor=none;fillColor=#f8cecc;strokeColor=#b85450;" parent="1" vertex="1">
          <mxGeometry x="-60" y="8060" width="120" height="60" as="geometry" />
        </mxCell>
        <mxCell id="afariw2JvGyVfo-4Ed1I-75" value="资金系统" style="rounded=1;whiteSpace=wrap;html=1;labelBackgroundColor=none;fillColor=#f8cecc;strokeColor=#b85450;" parent="1" vertex="1">
          <mxGeometry x="-60" y="8140" width="120" height="60" as="geometry" />
        </mxCell>
        <mxCell id="afariw2JvGyVfo-4Ed1I-76" value="礼物中心" style="rounded=1;whiteSpace=wrap;html=1;labelBackgroundColor=none;fillColor=#f8cecc;strokeColor=#b85450;" parent="1" vertex="1">
          <mxGeometry x="-60" y="8220" width="120" height="60" as="geometry" />
        </mxCell>
        <UserObject label="" link="https://flink.apache.org/flink-header-logo.svg" id="afariw2JvGyVfo-4Ed1I-77">
          <mxCell style="rounded=1;whiteSpace=wrap;html=1;labelBackgroundColor=none;" parent="1" vertex="1">
            <mxGeometry x="335" y="8920" width="470" height="430" as="geometry" />
          </mxCell>
        </UserObject>
        <mxCell id="afariw2JvGyVfo-4Ed1I-78" value="" style="shape=image;imageAspect=0;aspect=fixed;verticalLabelPosition=bottom;verticalAlign=top;image=https://flink.apache.org/flink-header-logo.svg;labelBackgroundColor=none;" parent="1" vertex="1">
          <mxGeometry x="463.55" y="9087.4" width="242.9" height="125.2" as="geometry" />
        </mxCell>
        <mxCell id="afariw2JvGyVfo-4Ed1I-80" value="MySQL" style="shape=cylinder3;whiteSpace=wrap;html=1;boundedLbl=1;backgroundOutline=1;size=15;labelBackgroundColor=none;" parent="1" vertex="1">
          <mxGeometry x="-70" y="8980" width="60" height="80" as="geometry" />
        </mxCell>
        <mxCell id="afariw2JvGyVfo-4Ed1I-81" value="Hbase" style="shape=cylinder3;whiteSpace=wrap;html=1;boundedLbl=1;backgroundOutline=1;size=15;labelBackgroundColor=none;" parent="1" vertex="1">
          <mxGeometry x="-70" y="9110" width="60" height="80" as="geometry" />
        </mxCell>
        <mxCell id="afariw2JvGyVfo-4Ed1I-82" value="kafka" style="strokeWidth=2;html=1;shape=mxgraph.flowchart.direct_data;whiteSpace=wrap;labelBackgroundColor=none;" parent="1" vertex="1">
          <mxGeometry x="-90" y="9250" width="100" height="60" as="geometry" />
        </mxCell>
        <mxCell id="afariw2JvGyVfo-4Ed1I-86" value="" style="html=1;shadow=0;dashed=0;align=center;verticalAlign=middle;shape=mxgraph.arrows2.arrow;dy=0.67;dx=20;notch=0;labelBackgroundColor=none;" parent="1" vertex="1">
          <mxGeometry x="-5" y="9000" width="320" height="60" as="geometry" />
        </mxCell>
        <mxCell id="afariw2JvGyVfo-4Ed1I-87" value="" style="html=1;shadow=0;dashed=0;align=center;verticalAlign=middle;shape=mxgraph.arrows2.arrow;dy=0.67;dx=20;notch=0;labelBackgroundColor=none;" parent="1" vertex="1">
          <mxGeometry x="-5" y="9130" width="320" height="60" as="geometry" />
        </mxCell>
        <mxCell id="afariw2JvGyVfo-4Ed1I-88" value="" style="html=1;shadow=0;dashed=0;align=center;verticalAlign=middle;shape=mxgraph.arrows2.arrow;dy=0.67;dx=20;notch=0;labelBackgroundColor=none;" parent="1" vertex="1">
          <mxGeometry x="25" y="9250" width="290" height="60" as="geometry" />
        </mxCell>
        <mxCell id="afariw2JvGyVfo-4Ed1I-89" value="ClickHouse" style="strokeWidth=2;html=1;shape=mxgraph.flowchart.database;whiteSpace=wrap;labelBackgroundColor=none;" parent="1" vertex="1">
          <mxGeometry x="1035" y="9030" width="80" height="110" as="geometry" />
        </mxCell>
        <mxCell id="afariw2JvGyVfo-4Ed1I-91" value="kafka" style="strokeWidth=2;html=1;shape=mxgraph.flowchart.direct_data;whiteSpace=wrap;labelBackgroundColor=none;" parent="1" vertex="1">
          <mxGeometry x="1025" y="9230" width="100" height="60" as="geometry" />
        </mxCell>
        <mxCell id="6z_JIGFKxQZGrFoW06kK-2" value="" style="rounded=1;whiteSpace=wrap;html=1;labelBackgroundColor=none;" parent="1" vertex="1">
          <mxGeometry x="140" y="6580" width="1330" height="970" as="geometry" />
        </mxCell>
        <mxCell id="6z_JIGFKxQZGrFoW06kK-3" value="礼物面板管理" style="rounded=1;whiteSpace=wrap;html=1;verticalAlign=top;labelBackgroundColor=none;" parent="1" vertex="1">
          <mxGeometry x="195" y="6650" width="295" height="590" as="geometry" />
        </mxCell>
        <mxCell id="6z_JIGFKxQZGrFoW06kK-6" value="打赏" style="rounded=1;whiteSpace=wrap;html=1;align=center;verticalAlign=top;labelBackgroundColor=none;" parent="1" vertex="1">
          <mxGeometry x="520" y="6640" width="730" height="590" as="geometry" />
        </mxCell>
        <mxCell id="6z_JIGFKxQZGrFoW06kK-8" value="通知管理" style="rounded=1;whiteSpace=wrap;html=1;verticalAlign=top;labelBackgroundColor=none;" parent="1" vertex="1">
          <mxGeometry x="1055" y="6700" width="166" height="485" as="geometry" />
        </mxCell>
        <mxCell id="6z_JIGFKxQZGrFoW06kK-30" value="直播间礼物" style="rounded=0;whiteSpace=wrap;html=1;labelBackgroundColor=none;" parent="1" vertex="1">
          <mxGeometry x="215" y="6700" width="102" height="50" as="geometry" />
        </mxCell>
        <mxCell id="6z_JIGFKxQZGrFoW06kK-31" value="IM礼物" style="rounded=0;whiteSpace=wrap;html=1;labelBackgroundColor=none;" parent="1" vertex="1">
          <mxGeometry x="213" y="6777.5" width="102" height="50" as="geometry" />
        </mxCell>
        <mxCell id="6z_JIGFKxQZGrFoW06kK-33" value="直播间背包礼物" style="rounded=0;whiteSpace=wrap;html=1;labelBackgroundColor=none;" parent="1" vertex="1">
          <mxGeometry x="337.5" y="6859" width="102.5" height="61" as="geometry" />
        </mxCell>
        <mxCell id="6z_JIGFKxQZGrFoW06kK-34" value="广场动态礼物" style="rounded=0;whiteSpace=wrap;html=1;labelBackgroundColor=none;" parent="1" vertex="1">
          <mxGeometry x="340" y="6700" width="102" height="50" as="geometry" />
        </mxCell>
        <mxCell id="6z_JIGFKxQZGrFoW06kK-38" value="直播间普通礼物" style="rounded=0;whiteSpace=wrap;html=1;labelBackgroundColor=none;" parent="1" vertex="1">
          <mxGeometry x="340" y="6770" width="100" height="60" as="geometry" />
        </mxCell>
        <mxCell id="6z_JIGFKxQZGrFoW06kK-41" value="直播间贵族礼物" style="rounded=0;whiteSpace=wrap;html=1;labelBackgroundColor=none;" parent="1" vertex="1">
          <mxGeometry x="215" y="6860" width="95" height="60" as="geometry" />
        </mxCell>
        <mxCell id="6z_JIGFKxQZGrFoW06kK-46" value="打赏记录管理" style="rounded=1;whiteSpace=wrap;html=1;verticalAlign=top;labelBackgroundColor=none;" parent="1" vertex="1">
          <mxGeometry x="1270" y="6646" width="185" height="570" as="geometry" />
        </mxCell>
        <mxCell id="6z_JIGFKxQZGrFoW06kK-47" value="发送直播间礼物消息" style="rounded=0;whiteSpace=wrap;html=1;labelBackgroundColor=none;" parent="1" vertex="1">
          <mxGeometry x="1087.45" y="6885" width="82.5" height="50" as="geometry" />
        </mxCell>
        <mxCell id="6z_JIGFKxQZGrFoW06kK-48" value="发送榜单消息" style="rounded=0;whiteSpace=wrap;html=1;labelBackgroundColor=none;" parent="1" vertex="1">
          <mxGeometry x="1087.45" y="6742.5" width="102.55" height="50" as="geometry" />
        </mxCell>
        <mxCell id="6z_JIGFKxQZGrFoW06kK-49" value="发送公会消息" style="rounded=0;whiteSpace=wrap;html=1;labelBackgroundColor=none;" parent="1" vertex="1">
          <mxGeometry x="1087.45" y="6815" width="92.55" height="50" as="geometry" />
        </mxCell>
        <mxCell id="6z_JIGFKxQZGrFoW06kK-50" value="打赏明细记录" style="rounded=0;whiteSpace=wrap;html=1;labelBackgroundColor=none;" parent="1" vertex="1">
          <mxGeometry x="1302.5" y="6690" width="120" height="60" as="geometry" />
        </mxCell>
        <mxCell id="6z_JIGFKxQZGrFoW06kK-51" value="打赏人汇总记录" style="rounded=0;whiteSpace=wrap;html=1;labelBackgroundColor=none;" parent="1" vertex="1">
          <mxGeometry x="1302.5" y="6772.5" width="120" height="60" as="geometry" />
        </mxCell>
        <mxCell id="6z_JIGFKxQZGrFoW06kK-52" value="直播间粉丝团礼物" style="rounded=0;whiteSpace=wrap;html=1;labelBackgroundColor=none;" parent="1" vertex="1">
          <mxGeometry x="214" y="6952.5" width="96" height="57.5" as="geometry" />
        </mxCell>
        <mxCell id="6z_JIGFKxQZGrFoW06kK-53" value="场景" style="rounded=1;whiteSpace=wrap;html=1;verticalAlign=top;labelBackgroundColor=none;" parent="1" vertex="1">
          <mxGeometry x="545" y="6700" width="160" height="150" as="geometry" />
        </mxCell>
        <mxCell id="6z_JIGFKxQZGrFoW06kK-54" value="直播间" style="rounded=0;whiteSpace=wrap;html=1;labelBackgroundColor=none;" parent="1" vertex="1">
          <mxGeometry x="645" y="6737.5" width="50" height="92.5" as="geometry" />
        </mxCell>
        <mxCell id="6z_JIGFKxQZGrFoW06kK-55" value="IM" style="rounded=0;whiteSpace=wrap;html=1;labelBackgroundColor=none;" parent="1" vertex="1">
          <mxGeometry x="565" y="6737.5" width="59.95" height="42.5" as="geometry" />
        </mxCell>
        <mxCell id="6z_JIGFKxQZGrFoW06kK-56" value="动态" style="rounded=0;whiteSpace=wrap;html=1;labelBackgroundColor=none;" parent="1" vertex="1">
          <mxGeometry x="565" y="6785" width="60" height="45" as="geometry" />
        </mxCell>
        <mxCell id="6z_JIGFKxQZGrFoW06kK-57" value="准入校验" style="rounded=1;whiteSpace=wrap;html=1;verticalAlign=top;labelBackgroundColor=none;" parent="1" vertex="1">
          <mxGeometry x="717.5" y="6705" width="302.5" height="145" as="geometry" />
        </mxCell>
        <mxCell id="6z_JIGFKxQZGrFoW06kK-58" value="礼物校验" style="rounded=0;whiteSpace=wrap;html=1;labelBackgroundColor=none;" parent="1" vertex="1">
          <mxGeometry x="729" y="6730" width="65" height="45" as="geometry" />
        </mxCell>
        <mxCell id="6z_JIGFKxQZGrFoW06kK-59" value="打赏人校验" style="rounded=0;whiteSpace=wrap;html=1;labelBackgroundColor=none;" parent="1" vertex="1">
          <mxGeometry x="825" y="6735" width="65" height="45" as="geometry" />
        </mxCell>
        <mxCell id="6z_JIGFKxQZGrFoW06kK-60" value="受赏人校验" style="rounded=0;whiteSpace=wrap;html=1;labelBackgroundColor=none;" parent="1" vertex="1">
          <mxGeometry x="927.5" y="6736.25" width="65" height="45" as="geometry" />
        </mxCell>
        <mxCell id="6z_JIGFKxQZGrFoW06kK-61" value="直播间校验" style="rounded=0;whiteSpace=wrap;html=1;labelBackgroundColor=none;" parent="1" vertex="1">
          <mxGeometry x="927.5" y="6797.5" width="65" height="45" as="geometry" />
        </mxCell>
        <mxCell id="6z_JIGFKxQZGrFoW06kK-62" value="打赏业务校验(数量/金额)" style="rounded=0;whiteSpace=wrap;html=1;labelBackgroundColor=none;" parent="1" vertex="1">
          <mxGeometry x="729" y="6797.5" width="65" height="45" as="geometry" />
        </mxCell>
        <mxCell id="6z_JIGFKxQZGrFoW06kK-63" value="资产校验" style="rounded=0;whiteSpace=wrap;html=1;labelBackgroundColor=none;" parent="1" vertex="1">
          <mxGeometry x="825" y="6797.5" width="65" height="45" as="geometry" />
        </mxCell>
        <mxCell id="6z_JIGFKxQZGrFoW06kK-64" value="礼物玩法" style="rounded=1;whiteSpace=wrap;html=1;verticalAlign=top;labelBackgroundColor=none;" parent="1" vertex="1">
          <mxGeometry x="545" y="6870" width="255" height="160" as="geometry" />
        </mxCell>
        <mxCell id="6z_JIGFKxQZGrFoW06kK-65" value="普通礼物" style="rounded=0;whiteSpace=wrap;html=1;labelBackgroundColor=none;" parent="1" vertex="1">
          <mxGeometry x="559.98" y="6907.5" width="70" height="45" as="geometry" />
        </mxCell>
        <mxCell id="6z_JIGFKxQZGrFoW06kK-66" value="涂鸦礼物" style="rounded=0;whiteSpace=wrap;html=1;labelBackgroundColor=none;" parent="1" vertex="1">
          <mxGeometry x="559.98" y="6957.5" width="70" height="45" as="geometry" />
        </mxCell>
        <mxCell id="6z_JIGFKxQZGrFoW06kK-67" value="升级礼物" style="rounded=0;whiteSpace=wrap;html=1;labelBackgroundColor=none;" parent="1" vertex="1">
          <mxGeometry x="645" y="6907.5" width="70" height="45" as="geometry" />
        </mxCell>
        <mxCell id="6z_JIGFKxQZGrFoW06kK-68" value="盲盒礼物" style="rounded=0;whiteSpace=wrap;html=1;labelBackgroundColor=none;" parent="1" vertex="1">
          <mxGeometry x="645" y="6958.75" width="70" height="45" as="geometry" />
        </mxCell>
        <mxCell id="6z_JIGFKxQZGrFoW06kK-69" value="升级礼物" style="rounded=0;whiteSpace=wrap;html=1;labelBackgroundColor=none;" parent="1" vertex="1">
          <mxGeometry x="724" y="6908.5" width="70" height="45" as="geometry" />
        </mxCell>
        <mxCell id="6z_JIGFKxQZGrFoW06kK-70" value="背包礼物" style="rounded=0;whiteSpace=wrap;html=1;labelBackgroundColor=none;" parent="1" vertex="1">
          <mxGeometry x="725" y="6958.75" width="70" height="45" as="geometry" />
        </mxCell>
        <mxCell id="6z_JIGFKxQZGrFoW06kK-71" value="交易管理" style="rounded=1;whiteSpace=wrap;html=1;verticalAlign=top;labelBackgroundColor=none;" parent="1" vertex="1">
          <mxGeometry x="815" y="6875" width="210" height="155" as="geometry" />
        </mxCell>
        <mxCell id="6z_JIGFKxQZGrFoW06kK-72" value="生产交易号" style="rounded=0;whiteSpace=wrap;html=1;labelBackgroundColor=none;" parent="1" vertex="1">
          <mxGeometry x="855" y="6907.5" width="60" height="42" as="geometry" />
        </mxCell>
        <mxCell id="6z_JIGFKxQZGrFoW06kK-73" value="支付" style="rounded=0;whiteSpace=wrap;html=1;labelBackgroundColor=none;" parent="1" vertex="1">
          <mxGeometry x="935" y="6908.5" width="50" height="41" as="geometry" />
        </mxCell>
        <mxCell id="6z_JIGFKxQZGrFoW06kK-74" value="打赏记录" style="rounded=0;whiteSpace=wrap;html=1;labelBackgroundColor=none;" parent="1" vertex="1">
          <mxGeometry x="855" y="6968" width="55" height="42" as="geometry" />
        </mxCell>
        <mxCell id="6z_JIGFKxQZGrFoW06kK-75" value="礼物特效" style="rounded=1;whiteSpace=wrap;html=1;verticalAlign=top;labelBackgroundColor=none;" parent="1" vertex="1">
          <mxGeometry x="552.5" y="7060" width="237.5" height="150" as="geometry" />
        </mxCell>
        <mxCell id="6z_JIGFKxQZGrFoW06kK-76" value="升级特效" style="rounded=0;whiteSpace=wrap;html=1;labelBackgroundColor=none;" parent="1" vertex="1">
          <mxGeometry x="557.5" y="7100" width="65" height="40" as="geometry" />
        </mxCell>
        <mxCell id="6z_JIGFKxQZGrFoW06kK-77" value="告白特效" style="rounded=0;whiteSpace=wrap;html=1;labelBackgroundColor=none;" parent="1" vertex="1">
          <mxGeometry x="635" y="7100" width="65" height="40" as="geometry" />
        </mxCell>
        <mxCell id="6z_JIGFKxQZGrFoW06kK-78" value="告白特效" style="rounded=0;whiteSpace=wrap;html=1;labelBackgroundColor=none;" parent="1" vertex="1">
          <mxGeometry x="712.45" y="7100" width="65" height="40" as="geometry" />
        </mxCell>
        <mxCell id="6z_JIGFKxQZGrFoW06kK-79" value="火箭特效" style="rounded=0;whiteSpace=wrap;html=1;labelBackgroundColor=none;" parent="1" vertex="1">
          <mxGeometry x="557.5" y="7150" width="65" height="40" as="geometry" />
        </mxCell>
        <mxCell id="6z_JIGFKxQZGrFoW06kK-80" value="连击特效" style="rounded=0;whiteSpace=wrap;html=1;labelBackgroundColor=none;" parent="1" vertex="1">
          <mxGeometry x="632.5" y="7150" width="65" height="40" as="geometry" />
        </mxCell>
        <mxCell id="6z_JIGFKxQZGrFoW06kK-81" value="涂鸦特效" style="rounded=0;whiteSpace=wrap;html=1;labelBackgroundColor=none;" parent="1" vertex="1">
          <mxGeometry x="715" y="7150" width="65" height="40" as="geometry" />
        </mxCell>
        <mxCell id="6z_JIGFKxQZGrFoW06kK-83" value="受赏人汇总记录" style="rounded=0;whiteSpace=wrap;html=1;labelBackgroundColor=none;" parent="1" vertex="1">
          <mxGeometry x="1302.5" y="6860" width="120" height="60" as="geometry" />
        </mxCell>
        <mxCell id="6z_JIGFKxQZGrFoW06kK-84" value="发送直播间告白消息" style="rounded=0;whiteSpace=wrap;html=1;labelBackgroundColor=none;" parent="1" vertex="1">
          <mxGeometry x="1087.45" y="6959" width="82.5" height="50" as="geometry" />
        </mxCell>
        <mxCell id="6z_JIGFKxQZGrFoW06kK-85" value="发送火箭礼物消息" style="rounded=0;whiteSpace=wrap;html=1;labelBackgroundColor=none;" parent="1" vertex="1">
          <mxGeometry x="1087.45" y="7035" width="82.5" height="50" as="geometry" />
        </mxCell>
        <mxCell id="6z_JIGFKxQZGrFoW06kK-86" value="发送世界礼物消息" style="rounded=0;whiteSpace=wrap;html=1;labelBackgroundColor=none;" parent="1" vertex="1">
          <mxGeometry x="1087.45" y="7115" width="82.5" height="50" as="geometry" />
        </mxCell>
        <mxCell id="6z_JIGFKxQZGrFoW06kK-89" value="打赏信息" style="rounded=1;whiteSpace=wrap;html=1;verticalAlign=top;labelBackgroundColor=none;" parent="1" vertex="1">
          <mxGeometry x="810" y="7060" width="230" height="150" as="geometry" />
        </mxCell>
        <mxCell id="6z_JIGFKxQZGrFoW06kK-90" value="礼物信息" style="rounded=0;whiteSpace=wrap;html=1;labelBackgroundColor=none;" parent="1" vertex="1">
          <mxGeometry x="817" y="7090" width="63" height="40" as="geometry" />
        </mxCell>
        <mxCell id="6z_JIGFKxQZGrFoW06kK-91" value="打赏人信息" style="rounded=0;whiteSpace=wrap;html=1;labelBackgroundColor=none;" parent="1" vertex="1">
          <mxGeometry x="819" y="7150" width="61" height="40" as="geometry" />
        </mxCell>
        <mxCell id="6z_JIGFKxQZGrFoW06kK-92" value="受赏人信息" style="rounded=0;whiteSpace=wrap;html=1;labelBackgroundColor=none;" parent="1" vertex="1">
          <mxGeometry x="890" y="7090" width="70" height="40" as="geometry" />
        </mxCell>
        <mxCell id="6z_JIGFKxQZGrFoW06kK-93" value="公会信息" style="rounded=0;whiteSpace=wrap;html=1;labelBackgroundColor=none;" parent="1" vertex="1">
          <mxGeometry x="890" y="7150" width="70" height="40" as="geometry" />
        </mxCell>
        <mxCell id="6z_JIGFKxQZGrFoW06kK-94" value="资产信息" style="rounded=0;whiteSpace=wrap;html=1;labelBackgroundColor=none;" parent="1" vertex="1">
          <mxGeometry x="970" y="7090" width="60" height="40" as="geometry" />
        </mxCell>
        <mxCell id="6z_JIGFKxQZGrFoW06kK-97" value="打开礼物面板" style="rounded=1;whiteSpace=wrap;html=1;arcSize=40;labelBackgroundColor=none;" parent="1" vertex="1">
          <mxGeometry x="400" y="5410" width="120" height="40" as="geometry" />
        </mxCell>
        <mxCell id="6z_JIGFKxQZGrFoW06kK-98" value="" style="edgeStyle=orthogonalEdgeStyle;html=1;verticalAlign=bottom;endArrow=open;endSize=8;rounded=0;labelBackgroundColor=none;fontColor=default;" parent="1" source="6z_JIGFKxQZGrFoW06kK-97" edge="1">
          <mxGeometry relative="1" as="geometry">
            <mxPoint x="460" y="5510" as="targetPoint" />
          </mxGeometry>
        </mxCell>
        <mxCell id="6z_JIGFKxQZGrFoW06kK-99" value="选择礼物" style="rounded=1;whiteSpace=wrap;html=1;arcSize=40;labelBackgroundColor=none;" parent="1" vertex="1">
          <mxGeometry x="400" y="5510" width="120" height="40" as="geometry" />
        </mxCell>
        <mxCell id="6z_JIGFKxQZGrFoW06kK-100" value="" style="edgeStyle=orthogonalEdgeStyle;html=1;verticalAlign=bottom;endArrow=open;endSize=8;rounded=0;labelBackgroundColor=none;fontColor=default;" parent="1" source="6z_JIGFKxQZGrFoW06kK-99" edge="1">
          <mxGeometry relative="1" as="geometry">
            <mxPoint x="460" y="5610" as="targetPoint" />
          </mxGeometry>
        </mxCell>
        <mxCell id="6z_JIGFKxQZGrFoW06kK-101" value="点击打赏" style="rounded=1;whiteSpace=wrap;html=1;arcSize=40;labelBackgroundColor=none;" parent="1" vertex="1">
          <mxGeometry x="400" y="5610" width="120" height="40" as="geometry" />
        </mxCell>
        <mxCell id="6z_JIGFKxQZGrFoW06kK-102" value="" style="edgeStyle=orthogonalEdgeStyle;html=1;verticalAlign=bottom;endArrow=open;endSize=8;rounded=0;labelBackgroundColor=none;fontColor=default;" parent="1" source="6z_JIGFKxQZGrFoW06kK-101" edge="1">
          <mxGeometry relative="1" as="geometry">
            <mxPoint x="460" y="5710" as="targetPoint" />
          </mxGeometry>
        </mxCell>
        <mxCell id="6z_JIGFKxQZGrFoW06kK-103" value="打赏人被打赏人关系是否符合条件" style="rhombus;whiteSpace=wrap;html=1;labelBackgroundColor=none;" parent="1" vertex="1">
          <mxGeometry x="410" y="5710" width="100" height="70" as="geometry" />
        </mxCell>
        <mxCell id="6z_JIGFKxQZGrFoW06kK-104" value="no" style="edgeStyle=orthogonalEdgeStyle;html=1;align=left;verticalAlign=bottom;endArrow=open;endSize=8;rounded=0;entryX=0.5;entryY=0;entryDx=0;entryDy=0;labelBackgroundColor=none;fontColor=default;" parent="1" source="6z_JIGFKxQZGrFoW06kK-103" target="6z_JIGFKxQZGrFoW06kK-118" edge="1">
          <mxGeometry x="-1" relative="1" as="geometry">
            <mxPoint x="600" y="5730" as="targetPoint" />
            <Array as="points">
              <mxPoint x="664" y="5745" />
            </Array>
          </mxGeometry>
        </mxCell>
        <mxCell id="6z_JIGFKxQZGrFoW06kK-105" value="yes" style="edgeStyle=orthogonalEdgeStyle;html=1;align=left;verticalAlign=top;endArrow=open;endSize=8;rounded=0;labelBackgroundColor=none;fontColor=default;" parent="1" source="6z_JIGFKxQZGrFoW06kK-103" edge="1">
          <mxGeometry x="-1" relative="1" as="geometry">
            <mxPoint x="460" y="5850" as="targetPoint" />
          </mxGeometry>
        </mxCell>
        <mxCell id="6z_JIGFKxQZGrFoW06kK-108" value="构建打赏信息" style="rounded=1;whiteSpace=wrap;html=1;arcSize=40;labelBackgroundColor=none;" parent="1" vertex="1">
          <mxGeometry x="400" y="5850" width="120" height="40" as="geometry" />
        </mxCell>
        <mxCell id="6z_JIGFKxQZGrFoW06kK-109" value="" style="edgeStyle=orthogonalEdgeStyle;html=1;verticalAlign=bottom;endArrow=open;endSize=8;rounded=0;labelBackgroundColor=none;fontColor=default;" parent="1" source="6z_JIGFKxQZGrFoW06kK-108" edge="1">
          <mxGeometry relative="1" as="geometry">
            <mxPoint x="460" y="5940" as="targetPoint" />
          </mxGeometry>
        </mxCell>
        <mxCell id="6z_JIGFKxQZGrFoW06kK-110" value="支付" style="rounded=1;whiteSpace=wrap;html=1;arcSize=40;labelBackgroundColor=none;" parent="1" vertex="1">
          <mxGeometry x="400" y="5940" width="120" height="40" as="geometry" />
        </mxCell>
        <mxCell id="6z_JIGFKxQZGrFoW06kK-111" value="" style="edgeStyle=orthogonalEdgeStyle;html=1;verticalAlign=bottom;endArrow=open;endSize=8;rounded=0;labelBackgroundColor=none;fontColor=default;" parent="1" source="6z_JIGFKxQZGrFoW06kK-110" edge="1">
          <mxGeometry relative="1" as="geometry">
            <mxPoint x="460" y="6040" as="targetPoint" />
          </mxGeometry>
        </mxCell>
        <mxCell id="6z_JIGFKxQZGrFoW06kK-112" value="支付成功" style="rhombus;whiteSpace=wrap;html=1;labelBackgroundColor=none;" parent="1" vertex="1">
          <mxGeometry x="420" y="6040" width="80" height="40" as="geometry" />
        </mxCell>
        <mxCell id="6z_JIGFKxQZGrFoW06kK-113" value="no" style="edgeStyle=orthogonalEdgeStyle;html=1;align=left;verticalAlign=bottom;endArrow=open;endSize=8;rounded=0;entryX=0.5;entryY=1;entryDx=0;entryDy=0;labelBackgroundColor=none;fontColor=default;" parent="1" source="6z_JIGFKxQZGrFoW06kK-112" target="6z_JIGFKxQZGrFoW06kK-118" edge="1">
          <mxGeometry x="-1" relative="1" as="geometry">
            <mxPoint x="600" y="6060" as="targetPoint" />
          </mxGeometry>
        </mxCell>
        <mxCell id="6z_JIGFKxQZGrFoW06kK-114" value="yes" style="edgeStyle=orthogonalEdgeStyle;html=1;align=left;verticalAlign=top;endArrow=open;endSize=8;rounded=0;labelBackgroundColor=none;fontColor=default;" parent="1" source="6z_JIGFKxQZGrFoW06kK-112" edge="1">
          <mxGeometry x="-1" relative="1" as="geometry">
            <mxPoint x="460" y="6140" as="targetPoint" />
          </mxGeometry>
        </mxCell>
        <mxCell id="6z_JIGFKxQZGrFoW06kK-117" value="" style="ellipse;html=1;shape=endState;labelBackgroundColor=none;" parent="1" vertex="1">
          <mxGeometry x="775" y="5865" width="30" height="30" as="geometry" />
        </mxCell>
        <mxCell id="6z_JIGFKxQZGrFoW06kK-121" value="" style="edgeStyle=orthogonalEdgeStyle;rounded=0;orthogonalLoop=1;jettySize=auto;html=1;labelBackgroundColor=none;fontColor=default;" parent="1" source="6z_JIGFKxQZGrFoW06kK-118" target="6z_JIGFKxQZGrFoW06kK-117" edge="1">
          <mxGeometry relative="1" as="geometry" />
        </mxCell>
        <mxCell id="6z_JIGFKxQZGrFoW06kK-118" value="提示失败" style="rounded=1;whiteSpace=wrap;html=1;arcSize=40;labelBackgroundColor=none;" parent="1" vertex="1">
          <mxGeometry x="604" y="5860" width="120" height="40" as="geometry" />
        </mxCell>
        <mxCell id="6z_JIGFKxQZGrFoW06kK-128" value="场景" style="rhombus;whiteSpace=wrap;html=1;labelBackgroundColor=none;" parent="1" vertex="1">
          <mxGeometry x="420" y="6140" width="80" height="40" as="geometry" />
        </mxCell>
        <mxCell id="6z_JIGFKxQZGrFoW06kK-129" value="IM" style="edgeStyle=orthogonalEdgeStyle;html=1;align=left;verticalAlign=bottom;endArrow=open;endSize=8;rounded=0;labelBackgroundColor=none;fontColor=default;" parent="1" source="6z_JIGFKxQZGrFoW06kK-128" edge="1">
          <mxGeometry x="-1" relative="1" as="geometry">
            <mxPoint x="560" y="6160" as="targetPoint" />
          </mxGeometry>
        </mxCell>
        <mxCell id="6z_JIGFKxQZGrFoW06kK-130" value="动态" style="edgeStyle=orthogonalEdgeStyle;html=1;align=left;verticalAlign=top;endArrow=open;endSize=8;rounded=0;labelBackgroundColor=none;fontColor=default;" parent="1" source="6z_JIGFKxQZGrFoW06kK-128" edge="1">
          <mxGeometry x="-1" relative="1" as="geometry">
            <mxPoint x="460" y="6240" as="targetPoint" />
          </mxGeometry>
        </mxCell>
        <mxCell id="6z_JIGFKxQZGrFoW06kK-141" style="edgeStyle=orthogonalEdgeStyle;rounded=0;orthogonalLoop=1;jettySize=auto;html=1;entryX=0.5;entryY=1;entryDx=0;entryDy=0;labelBackgroundColor=none;fontColor=default;" parent="1" source="6z_JIGFKxQZGrFoW06kK-132" target="6z_JIGFKxQZGrFoW06kK-139" edge="1">
          <mxGeometry relative="1" as="geometry" />
        </mxCell>
        <mxCell id="6z_JIGFKxQZGrFoW06kK-132" value="维护动态打赏信息" style="rounded=1;whiteSpace=wrap;html=1;arcSize=40;labelBackgroundColor=none;" parent="1" vertex="1">
          <mxGeometry x="400" y="6240" width="100" height="40" as="geometry" />
        </mxCell>
        <mxCell id="6z_JIGFKxQZGrFoW06kK-142" value="" style="edgeStyle=orthogonalEdgeStyle;rounded=0;orthogonalLoop=1;jettySize=auto;html=1;labelBackgroundColor=none;fontColor=default;" parent="1" source="6z_JIGFKxQZGrFoW06kK-136" target="6z_JIGFKxQZGrFoW06kK-139" edge="1">
          <mxGeometry relative="1" as="geometry" />
        </mxCell>
        <mxCell id="6z_JIGFKxQZGrFoW06kK-136" value="发送im消息" style="rounded=1;whiteSpace=wrap;html=1;arcSize=40;labelBackgroundColor=none;" parent="1" vertex="1">
          <mxGeometry x="560" y="6140" width="120" height="40" as="geometry" />
        </mxCell>
        <mxCell id="6z_JIGFKxQZGrFoW06kK-139" value="发送kafka消息" style="rounded=1;whiteSpace=wrap;html=1;arcSize=40;labelBackgroundColor=none;" parent="1" vertex="1">
          <mxGeometry x="730" y="6140" width="120" height="40" as="geometry" />
        </mxCell>
        <mxCell id="6z_JIGFKxQZGrFoW06kK-140" value="" style="edgeStyle=orthogonalEdgeStyle;html=1;verticalAlign=bottom;endArrow=open;endSize=8;rounded=0;entryX=0.5;entryY=1;entryDx=0;entryDy=0;labelBackgroundColor=none;fontColor=default;" parent="1" source="6z_JIGFKxQZGrFoW06kK-139" target="6z_JIGFKxQZGrFoW06kK-117" edge="1">
          <mxGeometry relative="1" as="geometry">
            <mxPoint x="790" y="6240" as="targetPoint" />
          </mxGeometry>
        </mxCell>
        <mxCell id="6z_JIGFKxQZGrFoW06kK-143" value="打开礼物面板" style="rounded=1;whiteSpace=wrap;html=1;arcSize=40;labelBackgroundColor=none;" parent="1" vertex="1">
          <mxGeometry x="1010" y="5390" width="120" height="40" as="geometry" />
        </mxCell>
        <mxCell id="6z_JIGFKxQZGrFoW06kK-144" value="" style="edgeStyle=orthogonalEdgeStyle;html=1;verticalAlign=bottom;endArrow=open;endSize=8;rounded=0;labelBackgroundColor=none;fontColor=default;" parent="1" source="6z_JIGFKxQZGrFoW06kK-143" edge="1">
          <mxGeometry relative="1" as="geometry">
            <mxPoint x="1070" y="5490" as="targetPoint" />
          </mxGeometry>
        </mxCell>
        <mxCell id="6z_JIGFKxQZGrFoW06kK-145" value="选择礼物" style="rounded=1;whiteSpace=wrap;html=1;arcSize=40;labelBackgroundColor=none;" parent="1" vertex="1">
          <mxGeometry x="1010" y="5490" width="120" height="40" as="geometry" />
        </mxCell>
        <mxCell id="6z_JIGFKxQZGrFoW06kK-146" value="" style="edgeStyle=orthogonalEdgeStyle;html=1;verticalAlign=bottom;endArrow=open;endSize=8;rounded=0;labelBackgroundColor=none;fontColor=default;" parent="1" source="6z_JIGFKxQZGrFoW06kK-145" edge="1">
          <mxGeometry relative="1" as="geometry">
            <mxPoint x="1070" y="5590" as="targetPoint" />
          </mxGeometry>
        </mxCell>
        <mxCell id="6z_JIGFKxQZGrFoW06kK-151" value="" style="edgeStyle=orthogonalEdgeStyle;rounded=0;orthogonalLoop=1;jettySize=auto;html=1;labelBackgroundColor=none;fontColor=default;" parent="1" source="6z_JIGFKxQZGrFoW06kK-147" target="6z_JIGFKxQZGrFoW06kK-148" edge="1">
          <mxGeometry relative="1" as="geometry" />
        </mxCell>
        <mxCell id="6z_JIGFKxQZGrFoW06kK-147" value="点击打赏" style="rounded=1;whiteSpace=wrap;html=1;arcSize=40;labelBackgroundColor=none;" parent="1" vertex="1">
          <mxGeometry x="1010" y="5590" width="120" height="40" as="geometry" />
        </mxCell>
        <mxCell id="6z_JIGFKxQZGrFoW06kK-148" value="礼物校验" style="rhombus;whiteSpace=wrap;html=1;labelBackgroundColor=none;" parent="1" vertex="1">
          <mxGeometry x="1030" y="5680" width="80" height="40" as="geometry" />
        </mxCell>
        <mxCell id="6z_JIGFKxQZGrFoW06kK-149" value="no" style="edgeStyle=orthogonalEdgeStyle;html=1;align=left;verticalAlign=bottom;endArrow=open;endSize=8;rounded=0;labelBackgroundColor=none;fontColor=default;" parent="1" source="6z_JIGFKxQZGrFoW06kK-148" edge="1">
          <mxGeometry x="-1" relative="1" as="geometry">
            <mxPoint x="1260" y="5800" as="targetPoint" />
          </mxGeometry>
        </mxCell>
        <mxCell id="6z_JIGFKxQZGrFoW06kK-150" value="yes" style="edgeStyle=orthogonalEdgeStyle;html=1;align=left;verticalAlign=top;endArrow=open;endSize=8;rounded=0;labelBackgroundColor=none;fontColor=default;" parent="1" source="6z_JIGFKxQZGrFoW06kK-148" edge="1">
          <mxGeometry x="-1" relative="1" as="geometry">
            <mxPoint x="1070" y="5780" as="targetPoint" />
          </mxGeometry>
        </mxCell>
        <mxCell id="6z_JIGFKxQZGrFoW06kK-152" value="直播间校验" style="rhombus;whiteSpace=wrap;html=1;labelBackgroundColor=none;" parent="1" vertex="1">
          <mxGeometry x="1030" y="5780" width="80" height="40" as="geometry" />
        </mxCell>
        <mxCell id="6z_JIGFKxQZGrFoW06kK-153" value="no" style="edgeStyle=orthogonalEdgeStyle;html=1;align=left;verticalAlign=bottom;endArrow=open;endSize=8;rounded=0;labelBackgroundColor=none;fontColor=default;" parent="1" source="6z_JIGFKxQZGrFoW06kK-152" edge="1">
          <mxGeometry x="-1" relative="1" as="geometry">
            <mxPoint x="1260" y="5900" as="targetPoint" />
          </mxGeometry>
        </mxCell>
        <mxCell id="6z_JIGFKxQZGrFoW06kK-154" value="yes" style="edgeStyle=orthogonalEdgeStyle;html=1;align=left;verticalAlign=top;endArrow=open;endSize=8;rounded=0;labelBackgroundColor=none;fontColor=default;" parent="1" source="6z_JIGFKxQZGrFoW06kK-152" edge="1">
          <mxGeometry x="-1" relative="1" as="geometry">
            <mxPoint x="1070" y="5880" as="targetPoint" />
          </mxGeometry>
        </mxCell>
        <mxCell id="6z_JIGFKxQZGrFoW06kK-155" value="打赏人/受赏人校验" style="rhombus;whiteSpace=wrap;html=1;labelBackgroundColor=none;" parent="1" vertex="1">
          <mxGeometry x="1030" y="5880" width="80" height="40" as="geometry" />
        </mxCell>
        <mxCell id="6z_JIGFKxQZGrFoW06kK-156" value="no" style="edgeStyle=orthogonalEdgeStyle;html=1;align=left;verticalAlign=bottom;endArrow=open;endSize=8;rounded=0;entryX=0;entryY=0.5;entryDx=0;entryDy=0;labelBackgroundColor=none;fontColor=default;" parent="1" source="6z_JIGFKxQZGrFoW06kK-155" target="6z_JIGFKxQZGrFoW06kK-169" edge="1">
          <mxGeometry x="-1" relative="1" as="geometry">
            <mxPoint x="1210" y="5900" as="targetPoint" />
          </mxGeometry>
        </mxCell>
        <mxCell id="6z_JIGFKxQZGrFoW06kK-157" value="yes" style="edgeStyle=orthogonalEdgeStyle;html=1;align=left;verticalAlign=top;endArrow=open;endSize=8;rounded=0;labelBackgroundColor=none;fontColor=default;" parent="1" source="6z_JIGFKxQZGrFoW06kK-155" edge="1">
          <mxGeometry x="-1" relative="1" as="geometry">
            <mxPoint x="1070" y="5980" as="targetPoint" />
          </mxGeometry>
        </mxCell>
        <mxCell id="6z_JIGFKxQZGrFoW06kK-158" value="资产校验" style="rhombus;whiteSpace=wrap;html=1;labelBackgroundColor=none;" parent="1" vertex="1">
          <mxGeometry x="1030" y="5980" width="80" height="40" as="geometry" />
        </mxCell>
        <mxCell id="6z_JIGFKxQZGrFoW06kK-159" value="no" style="edgeStyle=orthogonalEdgeStyle;html=1;align=left;verticalAlign=bottom;endArrow=open;endSize=8;rounded=0;labelBackgroundColor=none;fontColor=default;" parent="1" source="6z_JIGFKxQZGrFoW06kK-158" edge="1">
          <mxGeometry x="-1" relative="1" as="geometry">
            <mxPoint x="1260" y="5900" as="targetPoint" />
          </mxGeometry>
        </mxCell>
        <mxCell id="6z_JIGFKxQZGrFoW06kK-160" value="yes" style="edgeStyle=orthogonalEdgeStyle;html=1;align=left;verticalAlign=top;endArrow=open;endSize=8;rounded=0;labelBackgroundColor=none;fontColor=default;" parent="1" source="6z_JIGFKxQZGrFoW06kK-158" edge="1">
          <mxGeometry x="-1" relative="1" as="geometry">
            <mxPoint x="1070" y="6080" as="targetPoint" />
          </mxGeometry>
        </mxCell>
        <mxCell id="6z_JIGFKxQZGrFoW06kK-162" value="入参/数量金额校验" style="rhombus;whiteSpace=wrap;html=1;labelBackgroundColor=none;" parent="1" vertex="1">
          <mxGeometry x="1030" y="6080" width="80" height="40" as="geometry" />
        </mxCell>
        <mxCell id="6z_JIGFKxQZGrFoW06kK-163" value="no" style="edgeStyle=orthogonalEdgeStyle;html=1;align=left;verticalAlign=bottom;endArrow=open;endSize=8;rounded=0;labelBackgroundColor=none;fontColor=default;" parent="1" source="6z_JIGFKxQZGrFoW06kK-162" edge="1">
          <mxGeometry x="-1" relative="1" as="geometry">
            <mxPoint x="1260" y="6000" as="targetPoint" />
          </mxGeometry>
        </mxCell>
        <mxCell id="6z_JIGFKxQZGrFoW06kK-164" value="yes" style="edgeStyle=orthogonalEdgeStyle;html=1;align=left;verticalAlign=top;endArrow=open;endSize=8;rounded=0;labelBackgroundColor=none;fontColor=default;" parent="1" source="6z_JIGFKxQZGrFoW06kK-162" edge="1">
          <mxGeometry x="-1" relative="1" as="geometry">
            <mxPoint x="1070" y="6180" as="targetPoint" />
          </mxGeometry>
        </mxCell>
        <mxCell id="6z_JIGFKxQZGrFoW06kK-165" value="打赏支付等其他后续流程" style="rounded=1;whiteSpace=wrap;html=1;arcSize=40;labelBackgroundColor=none;" parent="1" vertex="1">
          <mxGeometry x="1020" y="6180" width="120" height="40" as="geometry" />
        </mxCell>
        <mxCell id="6z_JIGFKxQZGrFoW06kK-166" value="" style="edgeStyle=orthogonalEdgeStyle;html=1;verticalAlign=bottom;endArrow=open;endSize=8;rounded=0;entryX=0.5;entryY=1;entryDx=0;entryDy=0;labelBackgroundColor=none;fontColor=default;" parent="1" source="6z_JIGFKxQZGrFoW06kK-165" target="6z_JIGFKxQZGrFoW06kK-167" edge="1">
          <mxGeometry relative="1" as="geometry">
            <mxPoint x="1080" y="6280" as="targetPoint" />
          </mxGeometry>
        </mxCell>
        <mxCell id="6z_JIGFKxQZGrFoW06kK-167" value="" style="ellipse;html=1;shape=endState;labelBackgroundColor=none;" parent="1" vertex="1">
          <mxGeometry x="1451" y="5885" width="30" height="30" as="geometry" />
        </mxCell>
        <mxCell id="6z_JIGFKxQZGrFoW06kK-168" value="" style="edgeStyle=orthogonalEdgeStyle;rounded=0;orthogonalLoop=1;jettySize=auto;html=1;labelBackgroundColor=none;fontColor=default;" parent="1" source="6z_JIGFKxQZGrFoW06kK-169" target="6z_JIGFKxQZGrFoW06kK-167" edge="1">
          <mxGeometry relative="1" as="geometry" />
        </mxCell>
        <mxCell id="6z_JIGFKxQZGrFoW06kK-169" value="提示失败" style="rounded=1;whiteSpace=wrap;html=1;arcSize=40;labelBackgroundColor=none;" parent="1" vertex="1">
          <mxGeometry x="1280" y="5880" width="120" height="40" as="geometry" />
        </mxCell>
        <mxCell id="6z_JIGFKxQZGrFoW06kK-170" value="IM/动态打赏" style="text;align=center;fontStyle=1;verticalAlign=middle;spacingLeft=3;spacingRight=3;strokeColor=none;rotatable=0;points=[[0,0.5],[1,0.5]];portConstraint=eastwest;html=1;labelBackgroundColor=none;" parent="1" vertex="1">
          <mxGeometry x="270" y="5418" width="80" height="62" as="geometry" />
        </mxCell>
        <mxCell id="6z_JIGFKxQZGrFoW06kK-171" value="直播间打赏校验" style="text;align=center;fontStyle=1;verticalAlign=middle;spacingLeft=3;spacingRight=3;strokeColor=none;rotatable=0;points=[[0,0.5],[1,0.5]];portConstraint=eastwest;html=1;labelBackgroundColor=none;" parent="1" vertex="1">
          <mxGeometry x="875" y="5390" width="80" height="62" as="geometry" />
        </mxCell>
        <mxCell id="USVF3LIdqJh89pNJgLnu-2" value="" style="ellipse;html=1;shape=startState;labelBackgroundColor=none;" vertex="1" parent="1">
          <mxGeometry x="245" y="4420" width="30" height="30" as="geometry" />
        </mxCell>
        <mxCell id="USVF3LIdqJh89pNJgLnu-3" value="" style="edgeStyle=orthogonalEdgeStyle;html=1;verticalAlign=bottom;endArrow=open;endSize=8;rounded=0;labelBackgroundColor=none;fontColor=default;" edge="1" source="USVF3LIdqJh89pNJgLnu-2" parent="1">
          <mxGeometry relative="1" as="geometry">
            <mxPoint x="260" y="4510" as="targetPoint" />
          </mxGeometry>
        </mxCell>
        <mxCell id="USVF3LIdqJh89pNJgLnu-4" value="打赏结束，发送打赏kafka消息" style="rounded=1;whiteSpace=wrap;html=1;arcSize=40;labelBackgroundColor=none;" vertex="1" parent="1">
          <mxGeometry x="197" y="4510" width="120" height="40" as="geometry" />
        </mxCell>
        <mxCell id="USVF3LIdqJh89pNJgLnu-5" value="" style="edgeStyle=orthogonalEdgeStyle;html=1;verticalAlign=bottom;endArrow=open;endSize=8;rounded=0;labelBackgroundColor=none;fontColor=default;" edge="1" source="USVF3LIdqJh89pNJgLnu-4" parent="1">
          <mxGeometry relative="1" as="geometry">
            <mxPoint x="257" y="4610" as="targetPoint" />
          </mxGeometry>
        </mxCell>
        <mxCell id="USVF3LIdqJh89pNJgLnu-6" value="异步消费kafka消息" style="rounded=1;whiteSpace=wrap;html=1;arcSize=40;labelBackgroundColor=none;" vertex="1" parent="1">
          <mxGeometry x="195" y="4610" width="120" height="40" as="geometry" />
        </mxCell>
        <mxCell id="USVF3LIdqJh89pNJgLnu-7" value="" style="edgeStyle=orthogonalEdgeStyle;html=1;verticalAlign=bottom;endArrow=open;endSize=8;rounded=0;labelBackgroundColor=none;fontColor=default;" edge="1" source="USVF3LIdqJh89pNJgLnu-6" parent="1">
          <mxGeometry relative="1" as="geometry">
            <mxPoint x="255" y="4710" as="targetPoint" />
          </mxGeometry>
        </mxCell>
        <mxCell id="USVF3LIdqJh89pNJgLnu-11" value="" style="edgeStyle=orthogonalEdgeStyle;rounded=0;orthogonalLoop=1;jettySize=auto;html=1;labelBackgroundColor=none;fontColor=default;" edge="1" parent="1" source="USVF3LIdqJh89pNJgLnu-8" target="USVF3LIdqJh89pNJgLnu-10">
          <mxGeometry relative="1" as="geometry">
            <Array as="points">
              <mxPoint x="490" y="4730" />
              <mxPoint x="490" y="4640" />
            </Array>
          </mxGeometry>
        </mxCell>
        <mxCell id="USVF3LIdqJh89pNJgLnu-13" style="edgeStyle=orthogonalEdgeStyle;rounded=0;orthogonalLoop=1;jettySize=auto;html=1;entryX=0;entryY=0.5;entryDx=0;entryDy=0;labelBackgroundColor=none;fontColor=default;" edge="1" parent="1" source="USVF3LIdqJh89pNJgLnu-8" target="USVF3LIdqJh89pNJgLnu-12">
          <mxGeometry relative="1" as="geometry" />
        </mxCell>
        <mxCell id="USVF3LIdqJh89pNJgLnu-15" style="edgeStyle=orthogonalEdgeStyle;rounded=0;orthogonalLoop=1;jettySize=auto;html=1;entryX=0;entryY=0.5;entryDx=0;entryDy=0;labelBackgroundColor=none;fontColor=default;" edge="1" parent="1" source="USVF3LIdqJh89pNJgLnu-8" target="USVF3LIdqJh89pNJgLnu-14">
          <mxGeometry relative="1" as="geometry">
            <Array as="points">
              <mxPoint x="490" y="4730" />
              <mxPoint x="490" y="4810" />
            </Array>
          </mxGeometry>
        </mxCell>
        <mxCell id="USVF3LIdqJh89pNJgLnu-8" value="发送特效相关的消息" style="rounded=1;whiteSpace=wrap;html=1;arcSize=40;labelBackgroundColor=none;" vertex="1" parent="1">
          <mxGeometry x="195" y="4710" width="120" height="40" as="geometry" />
        </mxCell>
        <mxCell id="USVF3LIdqJh89pNJgLnu-9" value="" style="edgeStyle=orthogonalEdgeStyle;html=1;verticalAlign=bottom;endArrow=open;endSize=8;rounded=0;labelBackgroundColor=none;fontColor=default;" edge="1" source="USVF3LIdqJh89pNJgLnu-8" parent="1">
          <mxGeometry relative="1" as="geometry">
            <mxPoint x="255" y="4860" as="targetPoint" />
          </mxGeometry>
        </mxCell>
        <mxCell id="USVF3LIdqJh89pNJgLnu-22" style="edgeStyle=orthogonalEdgeStyle;rounded=0;orthogonalLoop=1;jettySize=auto;html=1;entryX=1;entryY=1;entryDx=0;entryDy=0;labelBackgroundColor=none;fontColor=default;" edge="1" parent="1" source="USVF3LIdqJh89pNJgLnu-10" target="USVF3LIdqJh89pNJgLnu-20">
          <mxGeometry relative="1" as="geometry">
            <Array as="points">
              <mxPoint x="730" y="4640" />
              <mxPoint x="730" y="4996" />
            </Array>
          </mxGeometry>
        </mxCell>
        <mxCell id="USVF3LIdqJh89pNJgLnu-10" value="火箭特效" style="rounded=1;whiteSpace=wrap;html=1;arcSize=40;labelBackgroundColor=none;" vertex="1" parent="1">
          <mxGeometry x="525" y="4620" width="120" height="40" as="geometry" />
        </mxCell>
        <mxCell id="USVF3LIdqJh89pNJgLnu-23" style="edgeStyle=orthogonalEdgeStyle;rounded=0;orthogonalLoop=1;jettySize=auto;html=1;entryX=1;entryY=0.5;entryDx=0;entryDy=0;labelBackgroundColor=none;fontColor=default;" edge="1" parent="1" source="USVF3LIdqJh89pNJgLnu-12" target="USVF3LIdqJh89pNJgLnu-20">
          <mxGeometry relative="1" as="geometry">
            <Array as="points">
              <mxPoint x="710" y="4730" />
              <mxPoint x="710" y="4985" />
            </Array>
          </mxGeometry>
        </mxCell>
        <mxCell id="USVF3LIdqJh89pNJgLnu-12" value="告白特效" style="rounded=1;whiteSpace=wrap;html=1;arcSize=40;labelBackgroundColor=none;" vertex="1" parent="1">
          <mxGeometry x="520" y="4710" width="120" height="40" as="geometry" />
        </mxCell>
        <mxCell id="USVF3LIdqJh89pNJgLnu-24" style="edgeStyle=orthogonalEdgeStyle;rounded=0;orthogonalLoop=1;jettySize=auto;html=1;labelBackgroundColor=none;fontColor=default;" edge="1" parent="1" source="USVF3LIdqJh89pNJgLnu-14">
          <mxGeometry relative="1" as="geometry">
            <mxPoint x="540" y="4980" as="targetPoint" />
            <Array as="points">
              <mxPoint x="690" y="4810" />
              <mxPoint x="690" y="4980" />
            </Array>
          </mxGeometry>
        </mxCell>
        <mxCell id="USVF3LIdqJh89pNJgLnu-14" value="世界礼物特效" style="rounded=1;whiteSpace=wrap;html=1;arcSize=40;labelBackgroundColor=none;" vertex="1" parent="1">
          <mxGeometry x="525" y="4790" width="120" height="40" as="geometry" />
        </mxCell>
        <mxCell id="USVF3LIdqJh89pNJgLnu-16" value="通知榜单更新" style="rounded=1;whiteSpace=wrap;html=1;arcSize=40;labelBackgroundColor=none;" vertex="1" parent="1">
          <mxGeometry x="197" y="4860" width="120" height="40" as="geometry" />
        </mxCell>
        <mxCell id="USVF3LIdqJh89pNJgLnu-17" value="" style="edgeStyle=orthogonalEdgeStyle;html=1;verticalAlign=bottom;endArrow=open;endSize=8;rounded=0;labelBackgroundColor=none;fontColor=default;" edge="1" source="USVF3LIdqJh89pNJgLnu-16" parent="1">
          <mxGeometry relative="1" as="geometry">
            <mxPoint x="257" y="4960" as="targetPoint" />
          </mxGeometry>
        </mxCell>
        <mxCell id="USVF3LIdqJh89pNJgLnu-18" value="通知工会消息" style="rounded=1;whiteSpace=wrap;html=1;arcSize=40;labelBackgroundColor=none;" vertex="1" parent="1">
          <mxGeometry x="197" y="4960" width="120" height="40" as="geometry" />
        </mxCell>
        <mxCell id="USVF3LIdqJh89pNJgLnu-19" value="" style="edgeStyle=orthogonalEdgeStyle;html=1;verticalAlign=bottom;endArrow=open;endSize=8;rounded=0;labelBackgroundColor=none;fontColor=default;" edge="1" source="USVF3LIdqJh89pNJgLnu-18" parent="1">
          <mxGeometry relative="1" as="geometry">
            <mxPoint x="520" y="4985" as="targetPoint" />
            <Array as="points">
              <mxPoint x="520" y="4980" />
            </Array>
          </mxGeometry>
        </mxCell>
        <mxCell id="USVF3LIdqJh89pNJgLnu-20" value="" style="ellipse;html=1;shape=endState;labelBackgroundColor=none;" vertex="1" parent="1">
          <mxGeometry x="510" y="4970" width="30" height="30" as="geometry" />
        </mxCell>
        <mxCell id="USVF3LIdqJh89pNJgLnu-28" value="" style="ellipse;html=1;shape=startState;labelBackgroundColor=none;" vertex="1" parent="1">
          <mxGeometry x="1000" y="4500" width="30" height="30" as="geometry" />
        </mxCell>
        <mxCell id="USVF3LIdqJh89pNJgLnu-29" value="" style="edgeStyle=orthogonalEdgeStyle;html=1;verticalAlign=bottom;endArrow=open;endSize=8;rounded=0;labelBackgroundColor=none;fontColor=default;" edge="1" source="USVF3LIdqJh89pNJgLnu-28" parent="1">
          <mxGeometry relative="1" as="geometry">
            <mxPoint x="1015" y="4590" as="targetPoint" />
          </mxGeometry>
        </mxCell>
        <mxCell id="USVF3LIdqJh89pNJgLnu-30" value="消费打赏记录kafka" style="rounded=1;whiteSpace=wrap;html=1;arcSize=40;labelBackgroundColor=none;" vertex="1" parent="1">
          <mxGeometry x="955" y="4590" width="120" height="40" as="geometry" />
        </mxCell>
        <mxCell id="USVF3LIdqJh89pNJgLnu-31" value="" style="edgeStyle=orthogonalEdgeStyle;html=1;verticalAlign=bottom;endArrow=open;endSize=8;rounded=0;labelBackgroundColor=none;fontColor=default;" edge="1" source="USVF3LIdqJh89pNJgLnu-30" parent="1">
          <mxGeometry relative="1" as="geometry">
            <mxPoint x="1015" y="4690" as="targetPoint" />
          </mxGeometry>
        </mxCell>
        <mxCell id="USVF3LIdqJh89pNJgLnu-32" value="汇总打赏人/受赏人日打赏记录" style="rounded=1;whiteSpace=wrap;html=1;arcSize=40;labelBackgroundColor=none;" vertex="1" parent="1">
          <mxGeometry x="955" y="4690" width="120" height="40" as="geometry" />
        </mxCell>
        <mxCell id="USVF3LIdqJh89pNJgLnu-33" value="" style="edgeStyle=orthogonalEdgeStyle;html=1;verticalAlign=bottom;endArrow=open;endSize=8;rounded=0;labelBackgroundColor=none;fontColor=default;" edge="1" source="USVF3LIdqJh89pNJgLnu-32" parent="1">
          <mxGeometry relative="1" as="geometry">
            <mxPoint x="1015" y="4790" as="targetPoint" />
          </mxGeometry>
        </mxCell>
        <mxCell id="USVF3LIdqJh89pNJgLnu-36" value="落入数据库db" style="rounded=1;whiteSpace=wrap;html=1;arcSize=40;labelBackgroundColor=none;" vertex="1" parent="1">
          <mxGeometry x="955" y="4790" width="120" height="40" as="geometry" />
        </mxCell>
        <mxCell id="USVF3LIdqJh89pNJgLnu-37" value="" style="edgeStyle=orthogonalEdgeStyle;html=1;verticalAlign=bottom;endArrow=open;endSize=8;rounded=0;labelBackgroundColor=none;fontColor=default;" edge="1" source="USVF3LIdqJh89pNJgLnu-36" parent="1">
          <mxGeometry relative="1" as="geometry">
            <mxPoint x="1015" y="4890" as="targetPoint" />
          </mxGeometry>
        </mxCell>
        <mxCell id="USVF3LIdqJh89pNJgLnu-38" value="" style="ellipse;html=1;shape=endState;labelBackgroundColor=none;" vertex="1" parent="1">
          <mxGeometry x="1000" y="4890" width="30" height="30" as="geometry" />
        </mxCell>
        <mxCell id="USVF3LIdqJh89pNJgLnu-39" value="" style="ellipse;html=1;shape=startState;labelBackgroundColor=none;" vertex="1" parent="1">
          <mxGeometry x="1210" y="4500" width="30" height="30" as="geometry" />
        </mxCell>
        <mxCell id="USVF3LIdqJh89pNJgLnu-40" value="" style="edgeStyle=orthogonalEdgeStyle;html=1;verticalAlign=bottom;endArrow=open;endSize=8;rounded=0;labelBackgroundColor=none;fontColor=default;" edge="1" source="USVF3LIdqJh89pNJgLnu-39" parent="1">
          <mxGeometry relative="1" as="geometry">
            <mxPoint x="1225" y="4590" as="targetPoint" />
          </mxGeometry>
        </mxCell>
        <mxCell id="USVF3LIdqJh89pNJgLnu-41" value="运营根据时间+用户发起打赏信息查询请求" style="rounded=1;whiteSpace=wrap;html=1;arcSize=40;labelBackgroundColor=none;" vertex="1" parent="1">
          <mxGeometry x="1165" y="4590" width="120" height="40" as="geometry" />
        </mxCell>
        <mxCell id="USVF3LIdqJh89pNJgLnu-42" value="" style="edgeStyle=orthogonalEdgeStyle;html=1;verticalAlign=bottom;endArrow=open;endSize=8;rounded=0;labelBackgroundColor=none;fontColor=default;" edge="1" source="USVF3LIdqJh89pNJgLnu-41" parent="1">
          <mxGeometry relative="1" as="geometry">
            <mxPoint x="1225" y="4700" as="targetPoint" />
          </mxGeometry>
        </mxCell>
        <mxCell id="USVF3LIdqJh89pNJgLnu-43" value="查询db，返回结果" style="rounded=1;whiteSpace=wrap;html=1;arcSize=40;labelBackgroundColor=none;" vertex="1" parent="1">
          <mxGeometry x="1170" y="4700" width="120" height="40" as="geometry" />
        </mxCell>
        <mxCell id="USVF3LIdqJh89pNJgLnu-44" value="" style="edgeStyle=orthogonalEdgeStyle;html=1;verticalAlign=bottom;endArrow=open;endSize=8;rounded=0;labelBackgroundColor=none;fontColor=default;" edge="1" source="USVF3LIdqJh89pNJgLnu-43" parent="1" target="USVF3LIdqJh89pNJgLnu-45">
          <mxGeometry relative="1" as="geometry">
            <mxPoint x="1230" y="4800" as="targetPoint" />
          </mxGeometry>
        </mxCell>
        <mxCell id="USVF3LIdqJh89pNJgLnu-45" value="" style="ellipse;html=1;shape=endState;labelBackgroundColor=none;" vertex="1" parent="1">
          <mxGeometry x="1215" y="4785" width="30" height="30" as="geometry" />
        </mxCell>
        <mxCell id="USVF3LIdqJh89pNJgLnu-46" value="准入校验" style="rounded=1;whiteSpace=wrap;html=1;verticalAlign=top;labelBackgroundColor=none;fillColor=#d5e8d4;strokeColor=#82b366;" vertex="1" parent="1">
          <mxGeometry x="117.5" y="7857.5" width="302.5" height="145" as="geometry" />
        </mxCell>
        <mxCell id="USVF3LIdqJh89pNJgLnu-47" value="礼物校验" style="rounded=0;whiteSpace=wrap;html=1;labelBackgroundColor=none;fillColor=#f8cecc;strokeColor=#b85450;" vertex="1" parent="1">
          <mxGeometry x="126.25" y="7888.75" width="65" height="45" as="geometry" />
        </mxCell>
        <mxCell id="USVF3LIdqJh89pNJgLnu-48" value="打赏人校验" style="rounded=0;whiteSpace=wrap;html=1;labelBackgroundColor=none;fillColor=#f8cecc;strokeColor=#b85450;" vertex="1" parent="1">
          <mxGeometry x="222.25" y="7893.75" width="65" height="45" as="geometry" />
        </mxCell>
        <mxCell id="USVF3LIdqJh89pNJgLnu-49" value="受赏人校验" style="rounded=0;whiteSpace=wrap;html=1;labelBackgroundColor=none;fillColor=#f8cecc;strokeColor=#b85450;" vertex="1" parent="1">
          <mxGeometry x="324.75" y="7895" width="65" height="45" as="geometry" />
        </mxCell>
        <mxCell id="USVF3LIdqJh89pNJgLnu-50" value="直播间校验" style="rounded=0;whiteSpace=wrap;html=1;labelBackgroundColor=none;fillColor=#f8cecc;strokeColor=#b85450;" vertex="1" parent="1">
          <mxGeometry x="324.75" y="7950" width="65" height="45" as="geometry" />
        </mxCell>
        <mxCell id="USVF3LIdqJh89pNJgLnu-51" value="打赏业务校验(数量/金额)" style="rounded=0;whiteSpace=wrap;html=1;labelBackgroundColor=none;fillColor=#f8cecc;strokeColor=#b85450;" vertex="1" parent="1">
          <mxGeometry x="126.25" y="7949" width="65" height="45" as="geometry" />
        </mxCell>
        <mxCell id="USVF3LIdqJh89pNJgLnu-52" value="资产校验" style="rounded=0;whiteSpace=wrap;html=1;labelBackgroundColor=none;fillColor=#f8cecc;strokeColor=#b85450;" vertex="1" parent="1">
          <mxGeometry x="220" y="7954" width="65" height="45" as="geometry" />
        </mxCell>
        <mxCell id="USVF3LIdqJh89pNJgLnu-53" value="礼物玩法" style="rounded=1;whiteSpace=wrap;html=1;verticalAlign=top;labelBackgroundColor=none;fillColor=#d5e8d4;strokeColor=#82b366;" vertex="1" parent="1">
          <mxGeometry x="517.5" y="7857.5" width="332.5" height="172.5" as="geometry" />
        </mxCell>
        <mxCell id="USVF3LIdqJh89pNJgLnu-54" value="普通礼物" style="rounded=0;whiteSpace=wrap;html=1;labelBackgroundColor=none;fillColor=#f8cecc;strokeColor=#b85450;" vertex="1" parent="1">
          <mxGeometry x="540.0500000000001" y="7892.5" width="70" height="45" as="geometry" />
        </mxCell>
        <mxCell id="USVF3LIdqJh89pNJgLnu-55" value="涂鸦礼物" style="rounded=0;whiteSpace=wrap;html=1;labelBackgroundColor=none;fillColor=#f8cecc;strokeColor=#b85450;" vertex="1" parent="1">
          <mxGeometry x="540.0500000000001" y="7960" width="70" height="45" as="geometry" />
        </mxCell>
        <mxCell id="USVF3LIdqJh89pNJgLnu-56" value="升级礼物" style="rounded=0;whiteSpace=wrap;html=1;labelBackgroundColor=none;fillColor=#f8cecc;strokeColor=#b85450;" vertex="1" parent="1">
          <mxGeometry x="632.5" y="7895" width="70" height="45" as="geometry" />
        </mxCell>
        <mxCell id="USVF3LIdqJh89pNJgLnu-57" value="盲盒礼物" style="rounded=0;whiteSpace=wrap;html=1;labelBackgroundColor=none;fillColor=#f8cecc;strokeColor=#b85450;" vertex="1" parent="1">
          <mxGeometry x="632.5" y="7960" width="70" height="45" as="geometry" />
        </mxCell>
        <mxCell id="USVF3LIdqJh89pNJgLnu-58" value="贴纸礼物" style="rounded=0;whiteSpace=wrap;html=1;labelBackgroundColor=none;fillColor=#f8cecc;strokeColor=#b85450;" vertex="1" parent="1">
          <mxGeometry x="740" y="7892.5" width="70" height="45" as="geometry" />
        </mxCell>
        <mxCell id="USVF3LIdqJh89pNJgLnu-59" value="背包礼物" style="rounded=0;whiteSpace=wrap;html=1;labelBackgroundColor=none;fillColor=#f8cecc;strokeColor=#b85450;" vertex="1" parent="1">
          <mxGeometry x="740" y="7957.5" width="70" height="45" as="geometry" />
        </mxCell>
        <mxCell id="USVF3LIdqJh89pNJgLnu-60" value="交易管理" style="rounded=1;whiteSpace=wrap;html=1;verticalAlign=top;labelBackgroundColor=none;fillColor=#d5e8d4;strokeColor=#82b366;" vertex="1" parent="1">
          <mxGeometry x="117.5" y="8040" width="302.5" height="160" as="geometry" />
        </mxCell>
        <mxCell id="USVF3LIdqJh89pNJgLnu-61" value="生产交易流水号" style="rounded=0;whiteSpace=wrap;html=1;labelBackgroundColor=none;fillColor=#f8cecc;strokeColor=#b85450;" vertex="1" parent="1">
          <mxGeometry x="160" y="8070" width="85" height="50" as="geometry" />
        </mxCell>
        <mxCell id="USVF3LIdqJh89pNJgLnu-62" value="支付" style="rounded=0;whiteSpace=wrap;html=1;labelBackgroundColor=none;fillColor=#f8cecc;strokeColor=#b85450;" vertex="1" parent="1">
          <mxGeometry x="290" y="8070" width="80" height="50" as="geometry" />
        </mxCell>
        <mxCell id="USVF3LIdqJh89pNJgLnu-63" value="构建交易信息" style="rounded=0;whiteSpace=wrap;html=1;labelBackgroundColor=none;fillColor=#f8cecc;strokeColor=#b85450;" vertex="1" parent="1">
          <mxGeometry x="161.25" y="8140" width="82.5" height="42" as="geometry" />
        </mxCell>
        <mxCell id="USVF3LIdqJh89pNJgLnu-65" value="礼物特效" style="rounded=1;whiteSpace=wrap;html=1;verticalAlign=top;labelBackgroundColor=none;fillColor=#d5e8d4;strokeColor=#82b366;" vertex="1" parent="1">
          <mxGeometry x="517.5" y="8040" width="332.5" height="150" as="geometry" />
        </mxCell>
        <mxCell id="USVF3LIdqJh89pNJgLnu-66" value="升级特效" style="rounded=0;whiteSpace=wrap;html=1;labelBackgroundColor=none;fillColor=#f8cecc;strokeColor=#b85450;" vertex="1" parent="1">
          <mxGeometry x="545" y="8075" width="65" height="40" as="geometry" />
        </mxCell>
        <mxCell id="USVF3LIdqJh89pNJgLnu-67" value="告白特效" style="rounded=0;whiteSpace=wrap;html=1;labelBackgroundColor=none;fillColor=#f8cecc;strokeColor=#b85450;" vertex="1" parent="1">
          <mxGeometry x="638.75" y="8075" width="65" height="40" as="geometry" />
        </mxCell>
        <mxCell id="USVF3LIdqJh89pNJgLnu-68" value="盲盒礼物特效" style="rounded=0;whiteSpace=wrap;html=1;labelBackgroundColor=none;fillColor=#f8cecc;strokeColor=#b85450;" vertex="1" parent="1">
          <mxGeometry x="740" y="8075" width="65" height="40" as="geometry" />
        </mxCell>
        <mxCell id="USVF3LIdqJh89pNJgLnu-69" value="火箭特效" style="rounded=0;whiteSpace=wrap;html=1;labelBackgroundColor=none;fillColor=#f8cecc;strokeColor=#b85450;" vertex="1" parent="1">
          <mxGeometry x="545.05" y="8140" width="65" height="40" as="geometry" />
        </mxCell>
        <mxCell id="USVF3LIdqJh89pNJgLnu-70" value="连击特效" style="rounded=0;whiteSpace=wrap;html=1;labelBackgroundColor=none;fillColor=#f8cecc;strokeColor=#b85450;" vertex="1" parent="1">
          <mxGeometry x="638.75" y="8140" width="65" height="40" as="geometry" />
        </mxCell>
        <mxCell id="USVF3LIdqJh89pNJgLnu-71" value="涂鸦特效" style="rounded=0;whiteSpace=wrap;html=1;labelBackgroundColor=none;fillColor=#f8cecc;strokeColor=#b85450;" vertex="1" parent="1">
          <mxGeometry x="740" y="8140" width="65" height="40" as="geometry" />
        </mxCell>
        <mxCell id="USVF3LIdqJh89pNJgLnu-72" value="cat db监控告警" style="rounded=1;whiteSpace=wrap;html=1;labelBackgroundColor=none;fillColor=#f8cecc;strokeColor=#b85450;" vertex="1" parent="1">
          <mxGeometry x="950" y="7890" width="100" height="50" as="geometry" />
        </mxCell>
        <mxCell id="USVF3LIdqJh89pNJgLnu-73" value="运营配置" style="rounded=1;whiteSpace=wrap;html=1;labelBackgroundColor=none;verticalAlign=top;fillColor=#f8cecc;strokeColor=#b85450;" vertex="1" parent="1">
          <mxGeometry x="938" y="8146" width="128" height="272" as="geometry" />
        </mxCell>
        <mxCell id="USVF3LIdqJh89pNJgLnu-74" value="cat关键链路监控告警" style="rounded=1;whiteSpace=wrap;html=1;labelBackgroundColor=none;fillColor=#f8cecc;strokeColor=#b85450;" vertex="1" parent="1">
          <mxGeometry x="948" y="7970" width="102" height="50" as="geometry" />
        </mxCell>
        <mxCell id="USVF3LIdqJh89pNJgLnu-75" value="cat业务指标监控告警" style="rounded=1;whiteSpace=wrap;html=1;labelBackgroundColor=none;fillColor=#f8cecc;strokeColor=#b85450;" vertex="1" parent="1">
          <mxGeometry x="948" y="8040" width="102" height="50" as="geometry" />
        </mxCell>
        <mxCell id="USVF3LIdqJh89pNJgLnu-78" value="打赏通知" style="rounded=1;whiteSpace=wrap;html=1;verticalAlign=top;labelBackgroundColor=none;fillColor=#d5e8d4;strokeColor=#82b366;" vertex="1" parent="1">
          <mxGeometry x="118" y="8220" width="302" height="210" as="geometry" />
        </mxCell>
        <mxCell id="USVF3LIdqJh89pNJgLnu-81" value="礼物面板管理" style="rounded=1;whiteSpace=wrap;html=1;verticalAlign=top;labelBackgroundColor=none;fillColor=#d5e8d4;strokeColor=#82b366;" vertex="1" parent="1">
          <mxGeometry x="524" y="8220" width="326" height="190" as="geometry" />
        </mxCell>
        <mxCell id="USVF3LIdqJh89pNJgLnu-83" value="火箭礼物消息" style="rounded=0;whiteSpace=wrap;html=1;labelBackgroundColor=none;fillColor=#f8cecc;strokeColor=#b85450;" vertex="1" parent="1">
          <mxGeometry x="140" y="8250" width="100" height="40" as="geometry" />
        </mxCell>
        <mxCell id="USVF3LIdqJh89pNJgLnu-84" value="世界礼物消息" style="rounded=0;whiteSpace=wrap;html=1;labelBackgroundColor=none;fillColor=#f8cecc;strokeColor=#b85450;" vertex="1" parent="1">
          <mxGeometry x="287.25" y="8250" width="90" height="40" as="geometry" />
        </mxCell>
        <mxCell id="USVF3LIdqJh89pNJgLnu-85" value="告白礼物消息" style="rounded=0;whiteSpace=wrap;html=1;labelBackgroundColor=none;fillColor=#f8cecc;strokeColor=#b85450;" vertex="1" parent="1">
          <mxGeometry x="140" y="8320" width="100" height="40" as="geometry" />
        </mxCell>
        <mxCell id="USVF3LIdqJh89pNJgLnu-86" value="im消息" style="rounded=0;whiteSpace=wrap;html=1;labelBackgroundColor=none;fillColor=#f8cecc;strokeColor=#b85450;" vertex="1" parent="1">
          <mxGeometry x="285" y="8320" width="100" height="40" as="geometry" />
        </mxCell>
        <mxCell id="USVF3LIdqJh89pNJgLnu-87" value="榜单更新通知" style="rounded=0;whiteSpace=wrap;html=1;labelBackgroundColor=none;fillColor=#f8cecc;strokeColor=#b85450;" vertex="1" parent="1">
          <mxGeometry x="138" y="8380" width="102" height="40" as="geometry" />
        </mxCell>
        <mxCell id="USVF3LIdqJh89pNJgLnu-88" value="工会消息通知" style="rounded=0;whiteSpace=wrap;html=1;labelBackgroundColor=none;fillColor=#f8cecc;strokeColor=#b85450;" vertex="1" parent="1">
          <mxGeometry x="284" y="8380" width="102" height="40" as="geometry" />
        </mxCell>
        <mxCell id="USVF3LIdqJh89pNJgLnu-90" value="礼物面板查询" style="rounded=0;whiteSpace=wrap;html=1;labelBackgroundColor=none;fillColor=#f8cecc;strokeColor=#b85450;" vertex="1" parent="1">
          <mxGeometry x="642" y="8266" width="115" height="50" as="geometry" />
        </mxCell>
        <mxCell id="USVF3LIdqJh89pNJgLnu-93" value="展示层" style="rounded=0;whiteSpace=wrap;html=1;align=left;labelBackgroundColor=none;fillColor=#d5e8d4;strokeColor=#82b366;" vertex="1" parent="1">
          <mxGeometry x="1360" y="7700" width="1155" height="120" as="geometry" />
        </mxCell>
        <mxCell id="USVF3LIdqJh89pNJgLnu-94" value="系统功能模块" style="rounded=0;whiteSpace=wrap;html=1;align=center;verticalAlign=top;glass=0;labelBackgroundColor=none;fillColor=#d5e8d4;strokeColor=#82b366;" vertex="1" parent="1">
          <mxGeometry x="1530" y="7840" width="830" height="740" as="geometry" />
        </mxCell>
        <mxCell id="USVF3LIdqJh89pNJgLnu-95" value="依赖系统" style="rounded=0;whiteSpace=wrap;html=1;verticalAlign=top;glass=0;labelBackgroundColor=none;fillColor=#d5e8d4;strokeColor=#82b366;" vertex="1" parent="1">
          <mxGeometry x="1360" y="7840" width="155" height="740" as="geometry" />
        </mxCell>
        <mxCell id="USVF3LIdqJh89pNJgLnu-96" value="支撑组件" style="rounded=0;whiteSpace=wrap;html=1;verticalAlign=top;glass=0;labelBackgroundColor=none;fillColor=#d5e8d4;strokeColor=#82b366;" vertex="1" parent="1">
          <mxGeometry x="2365" y="7840" width="150" height="740" as="geometry" />
        </mxCell>
        <mxCell id="USVF3LIdqJh89pNJgLnu-97" value="存储" style="rounded=0;whiteSpace=wrap;html=1;labelBackgroundColor=none;fillColor=#d5e8d4;strokeColor=#82b366;" vertex="1" parent="1">
          <mxGeometry x="1360" y="8600" width="1155" height="80" as="geometry" />
        </mxCell>
        <mxCell id="USVF3LIdqJh89pNJgLnu-98" value="获取礼物面板" style="rounded=1;whiteSpace=wrap;html=1;labelBackgroundColor=none;fillColor=#f8cecc;strokeColor=#b85450;" vertex="1" parent="1">
          <mxGeometry x="1530" y="7725" width="120" height="60" as="geometry" />
        </mxCell>
        <mxCell id="USVF3LIdqJh89pNJgLnu-99" value="直播间打赏" style="rounded=1;whiteSpace=wrap;html=1;labelBackgroundColor=none;fillColor=#f8cecc;strokeColor=#b85450;" vertex="1" parent="1">
          <mxGeometry x="1680" y="7725" width="120" height="60" as="geometry" />
        </mxCell>
        <mxCell id="USVF3LIdqJh89pNJgLnu-100" value="动态打赏" style="rounded=1;whiteSpace=wrap;html=1;labelBackgroundColor=none;fillColor=#f8cecc;strokeColor=#b85450;" vertex="1" parent="1">
          <mxGeometry x="1840" y="7725" width="120" height="60" as="geometry" />
        </mxCell>
        <mxCell id="USVF3LIdqJh89pNJgLnu-101" value="im打赏" style="rounded=1;whiteSpace=wrap;html=1;labelBackgroundColor=none;fillColor=#f8cecc;strokeColor=#b85450;" vertex="1" parent="1">
          <mxGeometry x="1987.5" y="7725" width="120" height="60" as="geometry" />
        </mxCell>
        <mxCell id="USVF3LIdqJh89pNJgLnu-102" value="查询礼物面板" style="rounded=1;whiteSpace=wrap;html=1;labelBackgroundColor=none;fillColor=#f8cecc;strokeColor=#b85450;" vertex="1" parent="1">
          <mxGeometry x="2140" y="7725" width="120" height="60" as="geometry" />
        </mxCell>
        <mxCell id="USVF3LIdqJh89pNJgLnu-104" value="用户系统" style="rounded=1;whiteSpace=wrap;html=1;labelBackgroundColor=none;fillColor=#f8cecc;strokeColor=#b85450;" vertex="1" parent="1">
          <mxGeometry x="1375" y="7910" width="120" height="60" as="geometry" />
        </mxCell>
        <mxCell id="USVF3LIdqJh89pNJgLnu-105" value="直播间" style="rounded=1;whiteSpace=wrap;html=1;labelBackgroundColor=none;fillColor=#f8cecc;strokeColor=#b85450;" vertex="1" parent="1">
          <mxGeometry x="1375" y="7990" width="120" height="60" as="geometry" />
        </mxCell>
        <mxCell id="USVF3LIdqJh89pNJgLnu-106" value="公会" style="rounded=1;whiteSpace=wrap;html=1;labelBackgroundColor=none;fillColor=#f8cecc;strokeColor=#b85450;" vertex="1" parent="1">
          <mxGeometry x="1375" y="8070" width="120" height="60" as="geometry" />
        </mxCell>
        <mxCell id="USVF3LIdqJh89pNJgLnu-107" value="资金系统" style="rounded=1;whiteSpace=wrap;html=1;labelBackgroundColor=none;fillColor=#f8cecc;strokeColor=#b85450;" vertex="1" parent="1">
          <mxGeometry x="1375" y="8150" width="120" height="60" as="geometry" />
        </mxCell>
        <mxCell id="USVF3LIdqJh89pNJgLnu-108" value="礼物中心" style="rounded=1;whiteSpace=wrap;html=1;labelBackgroundColor=none;fillColor=#f8cecc;strokeColor=#b85450;" vertex="1" parent="1">
          <mxGeometry x="1375" y="8230" width="120" height="60" as="geometry" />
        </mxCell>
        <mxCell id="USVF3LIdqJh89pNJgLnu-134" value="cat db监控告警" style="rounded=1;whiteSpace=wrap;html=1;labelBackgroundColor=none;fillColor=#f8cecc;strokeColor=#b85450;" vertex="1" parent="1">
          <mxGeometry x="2378" y="7900" width="107" height="50" as="geometry" />
        </mxCell>
        <mxCell id="USVF3LIdqJh89pNJgLnu-136" value="cat关键链路监控告警" style="rounded=1;whiteSpace=wrap;html=1;labelBackgroundColor=none;fillColor=#f8cecc;strokeColor=#b85450;" vertex="1" parent="1">
          <mxGeometry x="2376" y="7980" width="109" height="50" as="geometry" />
        </mxCell>
        <mxCell id="USVF3LIdqJh89pNJgLnu-137" value="cat业务指标监控告警" style="rounded=1;whiteSpace=wrap;html=1;labelBackgroundColor=none;fillColor=#f8cecc;strokeColor=#b85450;" vertex="1" parent="1">
          <mxGeometry x="2376" y="8050" width="109" height="50" as="geometry" />
        </mxCell>
        <mxCell id="USVF3LIdqJh89pNJgLnu-151" value="核心业务层" style="rounded=0;whiteSpace=wrap;html=1;verticalAlign=top;labelBackgroundColor=none;fillColor=#d5e8d4;strokeColor=#82b366;" vertex="1" parent="1">
          <mxGeometry x="1560" y="7874" width="770" height="446" as="geometry" />
        </mxCell>
        <mxCell id="USVF3LIdqJh89pNJgLnu-152" value="准入校验" style="rounded=1;whiteSpace=wrap;html=1;verticalAlign=top;labelBackgroundColor=none;fillColor=#d5e8d4;strokeColor=#82b366;" vertex="1" parent="1">
          <mxGeometry x="1576.75" y="7888.75" width="302.5" height="145" as="geometry" />
        </mxCell>
        <mxCell id="USVF3LIdqJh89pNJgLnu-153" value="礼物校验" style="rounded=0;whiteSpace=wrap;html=1;labelBackgroundColor=none;fillColor=#f8cecc;strokeColor=#b85450;" vertex="1" parent="1">
          <mxGeometry x="1596.25" y="7907.5" width="65" height="45" as="geometry" />
        </mxCell>
        <mxCell id="USVF3LIdqJh89pNJgLnu-154" value="打赏人校验" style="rounded=0;whiteSpace=wrap;html=1;labelBackgroundColor=none;fillColor=#f8cecc;strokeColor=#b85450;" vertex="1" parent="1">
          <mxGeometry x="1695.5" y="7910" width="65" height="45" as="geometry" />
        </mxCell>
        <mxCell id="USVF3LIdqJh89pNJgLnu-155" value="受赏人校验" style="rounded=0;whiteSpace=wrap;html=1;labelBackgroundColor=none;fillColor=#f8cecc;strokeColor=#b85450;" vertex="1" parent="1">
          <mxGeometry x="1790" y="7905" width="65" height="45" as="geometry" />
        </mxCell>
        <mxCell id="USVF3LIdqJh89pNJgLnu-156" value="直播间校验" style="rounded=0;whiteSpace=wrap;html=1;labelBackgroundColor=none;fillColor=#f8cecc;strokeColor=#b85450;" vertex="1" parent="1">
          <mxGeometry x="1790" y="7964" width="65" height="45" as="geometry" />
        </mxCell>
        <mxCell id="USVF3LIdqJh89pNJgLnu-157" value="打赏业务校验(数量/金额)" style="rounded=0;whiteSpace=wrap;html=1;labelBackgroundColor=none;fillColor=#f8cecc;strokeColor=#b85450;" vertex="1" parent="1">
          <mxGeometry x="1596.25" y="7964" width="65" height="45" as="geometry" />
        </mxCell>
        <mxCell id="USVF3LIdqJh89pNJgLnu-158" value="资产校验" style="rounded=0;whiteSpace=wrap;html=1;labelBackgroundColor=none;fillColor=#f8cecc;strokeColor=#b85450;" vertex="1" parent="1">
          <mxGeometry x="1695.5" y="7964" width="65" height="45" as="geometry" />
        </mxCell>
        <mxCell id="USVF3LIdqJh89pNJgLnu-159" value="礼物玩法" style="rounded=1;whiteSpace=wrap;html=1;verticalAlign=top;labelBackgroundColor=none;fillColor=#d5e8d4;strokeColor=#82b366;" vertex="1" parent="1">
          <mxGeometry x="1975.05" y="7887.5" width="332.5" height="162.5" as="geometry" />
        </mxCell>
        <mxCell id="USVF3LIdqJh89pNJgLnu-160" value="普通礼物" style="rounded=0;whiteSpace=wrap;html=1;labelBackgroundColor=none;fillColor=#f8cecc;strokeColor=#b85450;" vertex="1" parent="1">
          <mxGeometry x="1982.5000000000002" y="7925" width="70" height="45" as="geometry" />
        </mxCell>
        <mxCell id="USVF3LIdqJh89pNJgLnu-161" value="涂鸦礼物" style="rounded=0;whiteSpace=wrap;html=1;labelBackgroundColor=none;fillColor=#f8cecc;strokeColor=#b85450;" vertex="1" parent="1">
          <mxGeometry x="1982.5000000000002" y="7988.75" width="70" height="45" as="geometry" />
        </mxCell>
        <mxCell id="USVF3LIdqJh89pNJgLnu-162" value="升级礼物" style="rounded=0;whiteSpace=wrap;html=1;labelBackgroundColor=none;fillColor=#f8cecc;strokeColor=#b85450;" vertex="1" parent="1">
          <mxGeometry x="2075" y="7925" width="70" height="45" as="geometry" />
        </mxCell>
        <mxCell id="USVF3LIdqJh89pNJgLnu-163" value="盲盒礼物" style="rounded=0;whiteSpace=wrap;html=1;labelBackgroundColor=none;fillColor=#f8cecc;strokeColor=#b85450;" vertex="1" parent="1">
          <mxGeometry x="2075" y="7990" width="70" height="45" as="geometry" />
        </mxCell>
        <mxCell id="USVF3LIdqJh89pNJgLnu-164" value="贴纸礼物" style="rounded=0;whiteSpace=wrap;html=1;labelBackgroundColor=none;fillColor=#f8cecc;strokeColor=#b85450;" vertex="1" parent="1">
          <mxGeometry x="2190" y="7925" width="70" height="45" as="geometry" />
        </mxCell>
        <mxCell id="USVF3LIdqJh89pNJgLnu-165" value="背包礼物" style="rounded=0;whiteSpace=wrap;html=1;labelBackgroundColor=none;fillColor=#f8cecc;strokeColor=#b85450;" vertex="1" parent="1">
          <mxGeometry x="2190" y="7988.75" width="70" height="45" as="geometry" />
        </mxCell>
        <mxCell id="USVF3LIdqJh89pNJgLnu-166" value="交易管理" style="rounded=1;whiteSpace=wrap;html=1;verticalAlign=top;labelBackgroundColor=none;fillColor=#d5e8d4;strokeColor=#82b366;" vertex="1" parent="1">
          <mxGeometry x="1578.75" y="8050" width="301.25" height="160" as="geometry" />
        </mxCell>
        <mxCell id="USVF3LIdqJh89pNJgLnu-167" value="生产交易流水号" style="rounded=0;whiteSpace=wrap;html=1;labelBackgroundColor=none;fillColor=#f8cecc;strokeColor=#b85450;" vertex="1" parent="1">
          <mxGeometry x="1621.25" y="8080" width="85" height="50" as="geometry" />
        </mxCell>
        <mxCell id="USVF3LIdqJh89pNJgLnu-168" value="支付" style="rounded=0;whiteSpace=wrap;html=1;labelBackgroundColor=none;fillColor=#f8cecc;strokeColor=#b85450;" vertex="1" parent="1">
          <mxGeometry x="1751.25" y="8080" width="80" height="50" as="geometry" />
        </mxCell>
        <mxCell id="USVF3LIdqJh89pNJgLnu-169" value="构建交易信息" style="rounded=0;whiteSpace=wrap;html=1;labelBackgroundColor=none;fillColor=#f8cecc;strokeColor=#b85450;" vertex="1" parent="1">
          <mxGeometry x="1622.5" y="8150" width="82.5" height="42" as="geometry" />
        </mxCell>
        <mxCell id="USVF3LIdqJh89pNJgLnu-170" value="礼物特效" style="rounded=1;whiteSpace=wrap;html=1;verticalAlign=top;labelBackgroundColor=none;fillColor=#d5e8d4;strokeColor=#82b366;" vertex="1" parent="1">
          <mxGeometry x="1975.05" y="8065" width="332.5" height="150" as="geometry" />
        </mxCell>
        <mxCell id="USVF3LIdqJh89pNJgLnu-171" value="升级特效" style="rounded=0;whiteSpace=wrap;html=1;labelBackgroundColor=none;fillColor=#f8cecc;strokeColor=#b85450;" vertex="1" parent="1">
          <mxGeometry x="1987.5" y="8090" width="65" height="40" as="geometry" />
        </mxCell>
        <mxCell id="USVF3LIdqJh89pNJgLnu-172" value="告白特效" style="rounded=0;whiteSpace=wrap;html=1;labelBackgroundColor=none;fillColor=#f8cecc;strokeColor=#b85450;" vertex="1" parent="1">
          <mxGeometry x="2107.5" y="8095" width="65" height="40" as="geometry" />
        </mxCell>
        <mxCell id="USVF3LIdqJh89pNJgLnu-173" value="盲盒特效" style="rounded=0;whiteSpace=wrap;html=1;labelBackgroundColor=none;fillColor=#f8cecc;strokeColor=#b85450;" vertex="1" parent="1">
          <mxGeometry x="2220" y="8085" width="65" height="40" as="geometry" />
        </mxCell>
        <mxCell id="USVF3LIdqJh89pNJgLnu-174" value="火箭特效" style="rounded=0;whiteSpace=wrap;html=1;labelBackgroundColor=none;fillColor=#f8cecc;strokeColor=#b85450;" vertex="1" parent="1">
          <mxGeometry x="1987.5000000000002" y="8150" width="65" height="40" as="geometry" />
        </mxCell>
        <mxCell id="USVF3LIdqJh89pNJgLnu-175" value="连击特效" style="rounded=0;whiteSpace=wrap;html=1;labelBackgroundColor=none;fillColor=#f8cecc;strokeColor=#b85450;" vertex="1" parent="1">
          <mxGeometry x="2110" y="8150" width="65" height="40" as="geometry" />
        </mxCell>
        <mxCell id="USVF3LIdqJh89pNJgLnu-176" value="涂鸦特效" style="rounded=0;whiteSpace=wrap;html=1;labelBackgroundColor=none;fillColor=#f8cecc;strokeColor=#b85450;" vertex="1" parent="1">
          <mxGeometry x="2220" y="8150" width="65" height="40" as="geometry" />
        </mxCell>
        <mxCell id="USVF3LIdqJh89pNJgLnu-178" value="基础业务支撑组件" style="rounded=0;whiteSpace=wrap;html=1;verticalAlign=top;labelBackgroundColor=none;fillColor=#d5e8d4;strokeColor=#82b366;" vertex="1" parent="1">
          <mxGeometry x="1567.75" y="8340" width="762.25" height="220" as="geometry" />
        </mxCell>
        <mxCell id="USVF3LIdqJh89pNJgLnu-179" value="打赏通知" style="rounded=1;whiteSpace=wrap;html=1;verticalAlign=top;labelBackgroundColor=none;fillColor=#d5e8d4;strokeColor=#82b366;" vertex="1" parent="1">
          <mxGeometry x="1579.25" y="8360" width="300.75" height="188" as="geometry" />
        </mxCell>
        <mxCell id="USVF3LIdqJh89pNJgLnu-181" value="火箭礼物消息" style="rounded=0;whiteSpace=wrap;html=1;labelBackgroundColor=none;fillColor=#f8cecc;strokeColor=#b85450;" vertex="1" parent="1">
          <mxGeometry x="1606.25" y="8380" width="100" height="40" as="geometry" />
        </mxCell>
        <mxCell id="USVF3LIdqJh89pNJgLnu-182" value="世界礼物消息" style="rounded=0;whiteSpace=wrap;html=1;labelBackgroundColor=none;fillColor=#f8cecc;strokeColor=#b85450;" vertex="1" parent="1">
          <mxGeometry x="1751.25" y="8380" width="98.75" height="40" as="geometry" />
        </mxCell>
        <mxCell id="USVF3LIdqJh89pNJgLnu-183" value="告白礼物消息" style="rounded=0;whiteSpace=wrap;html=1;labelBackgroundColor=none;fillColor=#f8cecc;strokeColor=#b85450;" vertex="1" parent="1">
          <mxGeometry x="1606.25" y="8430" width="100" height="40" as="geometry" />
        </mxCell>
        <mxCell id="USVF3LIdqJh89pNJgLnu-184" value="im消息" style="rounded=0;whiteSpace=wrap;html=1;labelBackgroundColor=none;fillColor=#f8cecc;strokeColor=#b85450;" vertex="1" parent="1">
          <mxGeometry x="1748.55" y="8430" width="100" height="40" as="geometry" />
        </mxCell>
        <mxCell id="USVF3LIdqJh89pNJgLnu-185" value="榜单更新通知" style="rounded=0;whiteSpace=wrap;html=1;labelBackgroundColor=none;fillColor=#f8cecc;strokeColor=#b85450;" vertex="1" parent="1">
          <mxGeometry x="1602.55" y="8490" width="102" height="40" as="geometry" />
        </mxCell>
        <mxCell id="USVF3LIdqJh89pNJgLnu-186" value="工会消息通知" style="rounded=0;whiteSpace=wrap;html=1;labelBackgroundColor=none;fillColor=#f8cecc;strokeColor=#b85450;" vertex="1" parent="1">
          <mxGeometry x="1748.55" y="8490" width="102" height="40" as="geometry" />
        </mxCell>
        <mxCell id="USVF3LIdqJh89pNJgLnu-192" value="礼物面板管理" style="rounded=1;whiteSpace=wrap;html=1;verticalAlign=top;labelBackgroundColor=none;fillColor=#d5e8d4;strokeColor=#82b366;" vertex="1" parent="1">
          <mxGeometry x="1580" y="8230" width="280" height="86" as="geometry" />
        </mxCell>
        <mxCell id="USVF3LIdqJh89pNJgLnu-194" value="礼物面板查询" style="rounded=0;whiteSpace=wrap;html=1;labelBackgroundColor=none;fillColor=#f8cecc;strokeColor=#b85450;" vertex="1" parent="1">
          <mxGeometry x="1663" y="8260" width="114" height="45" as="geometry" />
        </mxCell>
        <mxCell id="USVF3LIdqJh89pNJgLnu-198" value="" style="rounded=0;whiteSpace=wrap;html=1;labelBackgroundColor=none;" vertex="1" parent="1">
          <mxGeometry x="2750" y="8067" width="120" height="60" as="geometry" />
        </mxCell>
        <mxCell id="USVF3LIdqJh89pNJgLnu-199" value="API网关" style="rounded=1;whiteSpace=wrap;html=1;labelBackgroundColor=none;fillColor=#f8cecc;strokeColor=#b85450;" vertex="1" parent="1">
          <mxGeometry x="540" y="990" width="50" height="30" as="geometry" />
        </mxCell>
        <mxCell id="USVF3LIdqJh89pNJgLnu-201" value="Aries" style="rounded=1;whiteSpace=wrap;html=1;labelBackgroundColor=none;fillColor=#f8cecc;strokeColor=#b85450;" vertex="1" parent="1">
          <mxGeometry x="780" y="1120" width="70" height="30" as="geometry" />
        </mxCell>
        <mxCell id="USVF3LIdqJh89pNJgLnu-202" value="打赏上下文" style="ellipse;whiteSpace=wrap;html=1;labelBackgroundColor=none;" vertex="1" parent="1">
          <mxGeometry x="407.5" y="190" width="150" height="70" as="geometry" />
        </mxCell>
        <mxCell id="USVF3LIdqJh89pNJgLnu-203" value="交易支付上下文" style="ellipse;whiteSpace=wrap;html=1;labelBackgroundColor=none;" vertex="1" parent="1">
          <mxGeometry x="635" y="310" width="140" height="70" as="geometry" />
        </mxCell>
        <mxCell id="USVF3LIdqJh89pNJgLnu-204" value="礼物上下文" style="ellipse;whiteSpace=wrap;html=1;labelBackgroundColor=none;" vertex="1" parent="1">
          <mxGeometry x="215" y="295" width="140" height="70" as="geometry" />
        </mxCell>
        <mxCell id="USVF3LIdqJh89pNJgLnu-205" value="用户上下文" style="ellipse;whiteSpace=wrap;html=1;labelBackgroundColor=none;" vertex="1" parent="1">
          <mxGeometry x="425" y="320" width="140" height="70" as="geometry" />
        </mxCell>
        <mxCell id="USVF3LIdqJh89pNJgLnu-206" value="直播上下文" style="ellipse;whiteSpace=wrap;html=1;labelBackgroundColor=none;" vertex="1" parent="1">
          <mxGeometry x="425" y="420" width="140" height="70" as="geometry" />
        </mxCell>
        <mxCell id="USVF3LIdqJh89pNJgLnu-217" style="edgeStyle=orthogonalEdgeStyle;rounded=0;orthogonalLoop=1;jettySize=auto;html=1;exitX=1;exitY=0;exitDx=0;exitDy=0;entryX=0;entryY=0;entryDx=0;entryDy=0;fontColor=default;dashed=1;curved=1;endArrow=none;endFill=0;labelBackgroundColor=none;" edge="1" parent="1" source="afariw2JvGyVfo-4Ed1I-1" target="afariw2JvGyVfo-4Ed1I-1">
          <mxGeometry relative="1" as="geometry">
            <Array as="points">
              <mxPoint x="701" y="290" />
              <mxPoint x="269" y="290" />
            </Array>
          </mxGeometry>
        </mxCell>
        <mxCell id="USVF3LIdqJh89pNJgLnu-218" value="" style="curved=1;endArrow=none;html=1;rounded=0;fontColor=default;dashed=1;endFill=0;labelBackgroundColor=none;" edge="1" parent="1">
          <mxGeometry width="50" height="50" relative="1" as="geometry">
            <mxPoint x="396" y="400" as="sourcePoint" />
            <mxPoint x="590" y="280" as="targetPoint" />
            <Array as="points">
              <mxPoint x="500" y="420" />
              <mxPoint x="560" y="390" />
              <mxPoint x="587.25" y="350" />
              <mxPoint x="610" y="320" />
            </Array>
          </mxGeometry>
        </mxCell>
        <mxCell id="USVF3LIdqJh89pNJgLnu-219" value="" style="curved=1;endArrow=none;html=1;rounded=0;fontColor=default;endFill=0;dashed=1;labelBackgroundColor=none;exitX=0.071;exitY=0.768;exitDx=0;exitDy=0;exitPerimeter=0;" edge="1" parent="1" source="afariw2JvGyVfo-4Ed1I-1">
          <mxGeometry width="50" height="50" relative="1" as="geometry">
            <mxPoint x="290" y="460" as="sourcePoint" />
            <mxPoint x="410" y="290" as="targetPoint" />
            <Array as="points">
              <mxPoint x="340" y="460" />
              <mxPoint x="420" y="370" />
            </Array>
          </mxGeometry>
        </mxCell>
        <mxCell id="USVF3LIdqJh89pNJgLnu-226" value="" style="curved=1;endArrow=none;html=1;rounded=0;fontColor=default;dashed=1;endFill=0;labelBackgroundColor=none;" edge="1" parent="1" source="afariw2JvGyVfo-4Ed1I-1">
          <mxGeometry width="50" height="50" relative="1" as="geometry">
            <mxPoint x="510" y="370" as="sourcePoint" />
            <mxPoint x="600" y="330" as="targetPoint" />
            <Array as="points">
              <mxPoint x="680" y="450" />
              <mxPoint x="620" y="420" />
            </Array>
          </mxGeometry>
        </mxCell>
        <mxCell id="USVF3LIdqJh89pNJgLnu-282" value="" style="ellipse;html=1;shape=startState;fillColor=#000000;strokeColor=#ff0000;" vertex="1" parent="1">
          <mxGeometry x="-324" y="5356" width="30" height="30" as="geometry" />
        </mxCell>
        <mxCell id="USVF3LIdqJh89pNJgLnu-283" value="" style="edgeStyle=orthogonalEdgeStyle;html=1;verticalAlign=bottom;endArrow=open;endSize=8;strokeColor=#ff0000;rounded=0;" edge="1" source="USVF3LIdqJh89pNJgLnu-282" parent="1">
          <mxGeometry relative="1" as="geometry">
            <mxPoint x="-309" y="5446" as="targetPoint" />
          </mxGeometry>
        </mxCell>
        <mxCell id="USVF3LIdqJh89pNJgLnu-284" value="生成交易订单号" style="rounded=1;whiteSpace=wrap;html=1;arcSize=40;fontColor=#000000;fillColor=#ffffc0;strokeColor=#ff0000;" vertex="1" parent="1">
          <mxGeometry x="-370" y="5448" width="120" height="40" as="geometry" />
        </mxCell>
        <mxCell id="USVF3LIdqJh89pNJgLnu-285" value="" style="edgeStyle=orthogonalEdgeStyle;html=1;verticalAlign=bottom;endArrow=open;endSize=8;strokeColor=#ff0000;rounded=0;" edge="1" source="USVF3LIdqJh89pNJgLnu-284" parent="1">
          <mxGeometry relative="1" as="geometry">
            <mxPoint x="-310" y="5548" as="targetPoint" />
          </mxGeometry>
        </mxCell>
        <mxCell id="USVF3LIdqJh89pNJgLnu-292" value="" style="edgeStyle=orthogonalEdgeStyle;rounded=0;orthogonalLoop=1;jettySize=auto;html=1;" edge="1" parent="1" source="USVF3LIdqJh89pNJgLnu-286" target="USVF3LIdqJh89pNJgLnu-289">
          <mxGeometry relative="1" as="geometry" />
        </mxCell>
        <mxCell id="USVF3LIdqJh89pNJgLnu-293" value="非免费打赏" style="edgeLabel;html=1;align=center;verticalAlign=middle;resizable=0;points=[];" vertex="1" connectable="0" parent="USVF3LIdqJh89pNJgLnu-292">
          <mxGeometry x="-0.2941" y="2" relative="1" as="geometry">
            <mxPoint as="offset" />
          </mxGeometry>
        </mxCell>
        <mxCell id="USVF3LIdqJh89pNJgLnu-286" value="交易处理策略" style="rhombus;whiteSpace=wrap;html=1;fontColor=#000000;fillColor=#ffffc0;strokeColor=#ff0000;" vertex="1" parent="1">
          <mxGeometry x="-354" y="5550" width="80" height="40" as="geometry" />
        </mxCell>
        <mxCell id="USVF3LIdqJh89pNJgLnu-287" value="免费打赏" style="edgeStyle=orthogonalEdgeStyle;html=1;align=left;verticalAlign=bottom;endArrow=open;endSize=8;strokeColor=#ff0000;rounded=0;" edge="1" source="USVF3LIdqJh89pNJgLnu-286" parent="1">
          <mxGeometry x="-1" relative="1" as="geometry">
            <mxPoint x="-174" y="5570" as="targetPoint" />
          </mxGeometry>
        </mxCell>
        <mxCell id="USVF3LIdqJh89pNJgLnu-289" value="构建资金转移流水，工会补贴分账等" style="rounded=1;whiteSpace=wrap;html=1;arcSize=40;fontColor=#000000;fillColor=#ffffc0;strokeColor=#ff0000;" vertex="1" parent="1">
          <mxGeometry x="-374" y="5658" width="120" height="40" as="geometry" />
        </mxCell>
        <mxCell id="USVF3LIdqJh89pNJgLnu-290" value="" style="edgeStyle=orthogonalEdgeStyle;html=1;verticalAlign=bottom;endArrow=open;endSize=8;strokeColor=#ff0000;rounded=0;" edge="1" source="USVF3LIdqJh89pNJgLnu-289" parent="1">
          <mxGeometry relative="1" as="geometry">
            <mxPoint x="-314" y="5762" as="targetPoint" />
          </mxGeometry>
        </mxCell>
        <mxCell id="USVF3LIdqJh89pNJgLnu-294" value="支付" style="rounded=1;whiteSpace=wrap;html=1;arcSize=40;fontColor=#000000;fillColor=#ffffc0;strokeColor=#ff0000;" vertex="1" parent="1">
          <mxGeometry x="-376" y="5760" width="120" height="40" as="geometry" />
        </mxCell>
        <mxCell id="USVF3LIdqJh89pNJgLnu-295" value="" style="edgeStyle=orthogonalEdgeStyle;html=1;verticalAlign=bottom;endArrow=open;endSize=8;strokeColor=#ff0000;rounded=0;entryX=0.5;entryY=1;entryDx=0;entryDy=0;" edge="1" source="USVF3LIdqJh89pNJgLnu-294" parent="1" target="USVF3LIdqJh89pNJgLnu-296">
          <mxGeometry relative="1" as="geometry">
            <mxPoint x="-314" y="5866" as="targetPoint" />
          </mxGeometry>
        </mxCell>
        <mxCell id="USVF3LIdqJh89pNJgLnu-299" style="edgeStyle=orthogonalEdgeStyle;rounded=0;orthogonalLoop=1;jettySize=auto;html=1;entryX=0;entryY=0.5;entryDx=0;entryDy=0;strokeColor=#FF0000;" edge="1" parent="1" source="USVF3LIdqJh89pNJgLnu-296" target="USVF3LIdqJh89pNJgLnu-298">
          <mxGeometry relative="1" as="geometry" />
        </mxCell>
        <mxCell id="USVF3LIdqJh89pNJgLnu-296" value="记录打赏交易结果" style="rounded=1;whiteSpace=wrap;html=1;arcSize=40;fontColor=#000000;fillColor=#ffffc0;strokeColor=#ff0000;" vertex="1" parent="1">
          <mxGeometry x="-174" y="5554" width="120" height="40" as="geometry" />
        </mxCell>
        <mxCell id="USVF3LIdqJh89pNJgLnu-298" value="" style="ellipse;html=1;shape=endState;fillColor=#000000;strokeColor=#ff0000;" vertex="1" parent="1">
          <mxGeometry x="10" y="5560" width="30" height="30" as="geometry" />
        </mxCell>
        <mxCell id="USVF3LIdqJh89pNJgLnu-300" value="" style="ellipse;html=1;shape=startState;fillColor=#000000;strokeColor=#ff0000;" vertex="1" parent="1">
          <mxGeometry x="-1546" y="5322" width="30" height="30" as="geometry" />
        </mxCell>
        <mxCell id="USVF3LIdqJh89pNJgLnu-301" value="" style="edgeStyle=orthogonalEdgeStyle;html=1;verticalAlign=bottom;endArrow=open;endSize=8;strokeColor=#ff0000;rounded=0;" edge="1" source="USVF3LIdqJh89pNJgLnu-300" parent="1">
          <mxGeometry relative="1" as="geometry">
            <mxPoint x="-1531" y="5412" as="targetPoint" />
          </mxGeometry>
        </mxCell>
        <mxCell id="USVF3LIdqJh89pNJgLnu-307" value="" style="edgeStyle=orthogonalEdgeStyle;rounded=0;orthogonalLoop=1;jettySize=auto;html=1;" edge="1" parent="1" source="USVF3LIdqJh89pNJgLnu-302" target="USVF3LIdqJh89pNJgLnu-305">
          <mxGeometry relative="1" as="geometry" />
        </mxCell>
        <mxCell id="USVF3LIdqJh89pNJgLnu-302" value="进入直播间" style="rounded=1;whiteSpace=wrap;html=1;arcSize=40;fontColor=#000000;fillColor=#ffffc0;strokeColor=#ff0000;" vertex="1" parent="1">
          <mxGeometry x="-1592" y="5410" width="120" height="40" as="geometry" />
        </mxCell>
        <mxCell id="USVF3LIdqJh89pNJgLnu-304" value="直播间礼物面板" style="text;align=center;fontStyle=1;verticalAlign=middle;spacingLeft=3;spacingRight=3;strokeColor=none;rotatable=0;points=[[0,0.5],[1,0.5]];portConstraint=eastwest;html=1;" vertex="1" parent="1">
          <mxGeometry x="-1670" y="5332" width="80" height="26" as="geometry" />
        </mxCell>
        <mxCell id="USVF3LIdqJh89pNJgLnu-305" value="根据直播间id查看礼物面板" style="rounded=1;whiteSpace=wrap;html=1;arcSize=40;fontColor=#000000;fillColor=#ffffc0;strokeColor=#ff0000;" vertex="1" parent="1">
          <mxGeometry x="-1592" y="5550" width="120" height="40" as="geometry" />
        </mxCell>
        <mxCell id="USVF3LIdqJh89pNJgLnu-306" value="" style="edgeStyle=orthogonalEdgeStyle;html=1;verticalAlign=bottom;endArrow=open;endSize=8;strokeColor=#ff0000;rounded=0;" edge="1" source="USVF3LIdqJh89pNJgLnu-305" parent="1">
          <mxGeometry relative="1" as="geometry">
            <mxPoint x="-1532" y="5650" as="targetPoint" />
          </mxGeometry>
        </mxCell>
        <mxCell id="USVF3LIdqJh89pNJgLnu-308" value="根据配置的类目moduleId或者定制的moduleid" style="rounded=1;whiteSpace=wrap;html=1;arcSize=40;fontColor=#000000;fillColor=#ffffc0;strokeColor=#ff0000;" vertex="1" parent="1">
          <mxGeometry x="-1592" y="5650" width="120" height="40" as="geometry" />
        </mxCell>
        <mxCell id="USVF3LIdqJh89pNJgLnu-309" value="" style="edgeStyle=orthogonalEdgeStyle;html=1;verticalAlign=bottom;endArrow=open;endSize=8;strokeColor=#ff0000;rounded=0;" edge="1" source="USVF3LIdqJh89pNJgLnu-308" parent="1">
          <mxGeometry relative="1" as="geometry">
            <mxPoint x="-1532" y="5750" as="targetPoint" />
          </mxGeometry>
        </mxCell>
        <mxCell id="USVF3LIdqJh89pNJgLnu-310" value="查询module下所有礼物" style="rounded=1;whiteSpace=wrap;html=1;arcSize=40;fontColor=#000000;fillColor=#ffffc0;strokeColor=#ff0000;" vertex="1" parent="1">
          <mxGeometry x="-1591" y="5748" width="120" height="40" as="geometry" />
        </mxCell>
        <mxCell id="USVF3LIdqJh89pNJgLnu-311" value="" style="edgeStyle=orthogonalEdgeStyle;html=1;verticalAlign=bottom;endArrow=open;endSize=8;strokeColor=#ff0000;rounded=0;" edge="1" source="USVF3LIdqJh89pNJgLnu-310" parent="1">
          <mxGeometry relative="1" as="geometry">
            <mxPoint x="-1531" y="5848" as="targetPoint" />
          </mxGeometry>
        </mxCell>
        <mxCell id="USVF3LIdqJh89pNJgLnu-312" value="根据配置处理碎片礼物等" style="rounded=1;whiteSpace=wrap;html=1;arcSize=40;fontColor=#000000;fillColor=#ffffc0;strokeColor=#ff0000;" vertex="1" parent="1">
          <mxGeometry x="-1598" y="5846" width="120" height="40" as="geometry" />
        </mxCell>
        <mxCell id="USVF3LIdqJh89pNJgLnu-313" value="" style="edgeStyle=orthogonalEdgeStyle;html=1;verticalAlign=bottom;endArrow=open;endSize=8;strokeColor=#ff0000;rounded=0;" edge="1" source="USVF3LIdqJh89pNJgLnu-312" parent="1">
          <mxGeometry relative="1" as="geometry">
            <mxPoint x="-1538" y="5946" as="targetPoint" />
          </mxGeometry>
        </mxCell>
        <mxCell id="USVF3LIdqJh89pNJgLnu-320" value="设置礼物其他的一些配置信息" style="rounded=1;whiteSpace=wrap;html=1;arcSize=40;fontColor=#000000;fillColor=#ffffc0;strokeColor=#ff0000;" vertex="1" parent="1">
          <mxGeometry x="-1598" y="5944" width="120" height="40" as="geometry" />
        </mxCell>
        <mxCell id="USVF3LIdqJh89pNJgLnu-321" value="" style="edgeStyle=orthogonalEdgeStyle;html=1;verticalAlign=bottom;endArrow=open;endSize=8;strokeColor=#ff0000;rounded=0;" edge="1" source="USVF3LIdqJh89pNJgLnu-320" parent="1" target="USVF3LIdqJh89pNJgLnu-322">
          <mxGeometry relative="1" as="geometry">
            <mxPoint x="-1376" y="5964" as="targetPoint" />
          </mxGeometry>
        </mxCell>
        <mxCell id="USVF3LIdqJh89pNJgLnu-322" value="" style="ellipse;html=1;shape=endState;fillColor=#000000;strokeColor=#ff0000;" vertex="1" parent="1">
          <mxGeometry x="-1391" y="5949.000000000001" width="30" height="30" as="geometry" />
        </mxCell>
        <mxCell id="USVF3LIdqJh89pNJgLnu-323" value="" style="ellipse;html=1;shape=startState;fillColor=#000000;strokeColor=#ff0000;" vertex="1" parent="1">
          <mxGeometry x="-2462" y="5361" width="30" height="30" as="geometry" />
        </mxCell>
        <mxCell id="USVF3LIdqJh89pNJgLnu-324" value="" style="edgeStyle=orthogonalEdgeStyle;html=1;verticalAlign=bottom;endArrow=open;endSize=8;strokeColor=#ff0000;rounded=0;" edge="1" source="USVF3LIdqJh89pNJgLnu-323" parent="1">
          <mxGeometry relative="1" as="geometry">
            <mxPoint x="-2447" y="5451" as="targetPoint" />
          </mxGeometry>
        </mxCell>
        <mxCell id="USVF3LIdqJh89pNJgLnu-325" value="支付成功" style="rounded=1;whiteSpace=wrap;html=1;arcSize=40;fontColor=#000000;fillColor=#ffffc0;strokeColor=#ff0000;" vertex="1" parent="1">
          <mxGeometry x="-2507" y="5454" width="120" height="40" as="geometry" />
        </mxCell>
        <mxCell id="USVF3LIdqJh89pNJgLnu-326" value="" style="edgeStyle=orthogonalEdgeStyle;html=1;verticalAlign=bottom;endArrow=open;endSize=8;strokeColor=#ff0000;rounded=0;" edge="1" source="USVF3LIdqJh89pNJgLnu-325" parent="1">
          <mxGeometry relative="1" as="geometry">
            <mxPoint x="-2447" y="5554" as="targetPoint" />
          </mxGeometry>
        </mxCell>
        <mxCell id="USVF3LIdqJh89pNJgLnu-327" value="打赏后特效信息" style="text;align=center;fontStyle=1;verticalAlign=middle;spacingLeft=3;spacingRight=3;strokeColor=none;rotatable=0;points=[[0,0.5],[1,0.5]];portConstraint=eastwest;html=1;" vertex="1" parent="1">
          <mxGeometry x="-2652" y="5374" width="80" height="26" as="geometry" />
        </mxCell>
        <mxCell id="USVF3LIdqJh89pNJgLnu-328" value="升级礼物，累加礼物打赏个数，特效文案等" style="rounded=1;whiteSpace=wrap;html=1;arcSize=40;fontColor=#000000;fillColor=#ffffc0;strokeColor=#ff0000;" vertex="1" parent="1">
          <mxGeometry x="-2508" y="5554" width="120" height="40" as="geometry" />
        </mxCell>
        <mxCell id="USVF3LIdqJh89pNJgLnu-329" value="" style="edgeStyle=orthogonalEdgeStyle;html=1;verticalAlign=bottom;endArrow=open;endSize=8;strokeColor=#ff0000;rounded=0;" edge="1" source="USVF3LIdqJh89pNJgLnu-328" parent="1">
          <mxGeometry relative="1" as="geometry">
            <mxPoint x="-2448" y="5654" as="targetPoint" />
          </mxGeometry>
        </mxCell>
        <mxCell id="USVF3LIdqJh89pNJgLnu-330" value="连击：连击文案/限流" style="rounded=1;whiteSpace=wrap;html=1;arcSize=40;fontColor=#000000;fillColor=#ffffc0;strokeColor=#ff0000;" vertex="1" parent="1">
          <mxGeometry x="-2512" y="5656" width="120" height="40" as="geometry" />
        </mxCell>
        <mxCell id="USVF3LIdqJh89pNJgLnu-331" value="" style="edgeStyle=orthogonalEdgeStyle;html=1;verticalAlign=bottom;endArrow=open;endSize=8;strokeColor=#ff0000;rounded=0;" edge="1" source="USVF3LIdqJh89pNJgLnu-330" parent="1">
          <mxGeometry relative="1" as="geometry">
            <mxPoint x="-2452" y="5756" as="targetPoint" />
          </mxGeometry>
        </mxCell>
        <mxCell id="USVF3LIdqJh89pNJgLnu-337" value="" style="edgeStyle=orthogonalEdgeStyle;rounded=0;orthogonalLoop=1;jettySize=auto;html=1;fillColor=#f8cecc;strokeColor=#FF0000;" edge="1" parent="1" source="USVF3LIdqJh89pNJgLnu-334" target="USVF3LIdqJh89pNJgLnu-336">
          <mxGeometry relative="1" as="geometry" />
        </mxCell>
        <mxCell id="USVF3LIdqJh89pNJgLnu-334" value="发送kafka异步处理其他特效" style="rounded=1;whiteSpace=wrap;html=1;arcSize=40;fontColor=#000000;fillColor=#ffffc0;strokeColor=#FF0000;" vertex="1" parent="1">
          <mxGeometry x="-2512" y="5758" width="120" height="40" as="geometry" />
        </mxCell>
        <mxCell id="USVF3LIdqJh89pNJgLnu-335" value="" style="edgeStyle=orthogonalEdgeStyle;html=1;verticalAlign=bottom;endArrow=open;endSize=8;strokeColor=#FF0000;rounded=0;entryX=0.5;entryY=0;entryDx=0;entryDy=0;" edge="1" source="USVF3LIdqJh89pNJgLnu-334" parent="1" target="USVF3LIdqJh89pNJgLnu-338">
          <mxGeometry relative="1" as="geometry">
            <mxPoint x="-2452" y="5858" as="targetPoint" />
          </mxGeometry>
        </mxCell>
        <mxCell id="USVF3LIdqJh89pNJgLnu-342" value="" style="edgeStyle=orthogonalEdgeStyle;rounded=0;orthogonalLoop=1;jettySize=auto;html=1;strokeColor=#FF0000;" edge="1" parent="1" source="USVF3LIdqJh89pNJgLnu-336" target="USVF3LIdqJh89pNJgLnu-341">
          <mxGeometry relative="1" as="geometry" />
        </mxCell>
        <mxCell id="USVF3LIdqJh89pNJgLnu-349" style="edgeStyle=orthogonalEdgeStyle;rounded=0;orthogonalLoop=1;jettySize=auto;html=1;entryX=0;entryY=0.75;entryDx=0;entryDy=0;strokeColor=#FF0000;" edge="1" parent="1" source="USVF3LIdqJh89pNJgLnu-336" target="USVF3LIdqJh89pNJgLnu-343">
          <mxGeometry relative="1" as="geometry" />
        </mxCell>
        <mxCell id="USVF3LIdqJh89pNJgLnu-350" style="edgeStyle=orthogonalEdgeStyle;rounded=0;orthogonalLoop=1;jettySize=auto;html=1;entryX=0;entryY=0.75;entryDx=0;entryDy=0;strokeColor=#FF0000;" edge="1" parent="1" source="USVF3LIdqJh89pNJgLnu-336" target="USVF3LIdqJh89pNJgLnu-344">
          <mxGeometry relative="1" as="geometry" />
        </mxCell>
        <mxCell id="USVF3LIdqJh89pNJgLnu-351" style="edgeStyle=orthogonalEdgeStyle;rounded=0;orthogonalLoop=1;jettySize=auto;html=1;entryX=0;entryY=0.5;entryDx=0;entryDy=0;strokeColor=#FF0000;" edge="1" parent="1" source="USVF3LIdqJh89pNJgLnu-336" target="USVF3LIdqJh89pNJgLnu-346">
          <mxGeometry relative="1" as="geometry" />
        </mxCell>
        <mxCell id="USVF3LIdqJh89pNJgLnu-336" value="发送kafka异步处理其他特效" style="rounded=1;whiteSpace=wrap;html=1;arcSize=40;fontColor=#000000;fillColor=#ffffc0;strokeColor=#FF0000;" vertex="1" parent="1">
          <mxGeometry x="-2312" y="5758" width="120" height="40" as="geometry" />
        </mxCell>
        <mxCell id="USVF3LIdqJh89pNJgLnu-338" value="" style="ellipse;html=1;shape=endState;fillColor=#000000;strokeColor=#FF0000;" vertex="1" parent="1">
          <mxGeometry x="-2467" y="6042" width="30" height="30" as="geometry" />
        </mxCell>
        <mxCell id="USVF3LIdqJh89pNJgLnu-352" style="edgeStyle=orthogonalEdgeStyle;rounded=0;orthogonalLoop=1;jettySize=auto;html=1;entryX=1;entryY=1;entryDx=0;entryDy=0;strokeColor=#FF0000;" edge="1" parent="1" source="USVF3LIdqJh89pNJgLnu-341" target="USVF3LIdqJh89pNJgLnu-338">
          <mxGeometry relative="1" as="geometry">
            <Array as="points">
              <mxPoint x="-1876" y="5778" />
              <mxPoint x="-1876" y="6057" />
              <mxPoint x="-2441" y="6057" />
            </Array>
          </mxGeometry>
        </mxCell>
        <mxCell id="USVF3LIdqJh89pNJgLnu-341" value="火箭礼物特效" style="rounded=1;whiteSpace=wrap;html=1;arcSize=40;fontColor=#000000;fillColor=#ffffc0;strokeColor=#FF0000;" vertex="1" parent="1">
          <mxGeometry x="-2112" y="5758" width="120" height="40" as="geometry" />
        </mxCell>
        <mxCell id="USVF3LIdqJh89pNJgLnu-353" style="edgeStyle=orthogonalEdgeStyle;rounded=0;orthogonalLoop=1;jettySize=auto;html=1;entryX=1;entryY=0.5;entryDx=0;entryDy=0;strokeColor=#FF0000;" edge="1" parent="1" source="USVF3LIdqJh89pNJgLnu-343" target="USVF3LIdqJh89pNJgLnu-338">
          <mxGeometry relative="1" as="geometry">
            <Array as="points">
              <mxPoint x="-1874" y="5840" />
              <mxPoint x="-1874" y="6057" />
            </Array>
          </mxGeometry>
        </mxCell>
        <mxCell id="USVF3LIdqJh89pNJgLnu-343" value="世界礼物特效" style="rounded=1;whiteSpace=wrap;html=1;arcSize=40;fontColor=#000000;fillColor=#ffffc0;strokeColor=#FF0000;" vertex="1" parent="1">
          <mxGeometry x="-2110" y="5820" width="120" height="40" as="geometry" />
        </mxCell>
        <mxCell id="USVF3LIdqJh89pNJgLnu-354" style="edgeStyle=orthogonalEdgeStyle;rounded=0;orthogonalLoop=1;jettySize=auto;html=1;strokeColor=#FF0000;" edge="1" parent="1" source="USVF3LIdqJh89pNJgLnu-344">
          <mxGeometry relative="1" as="geometry">
            <mxPoint x="-2430" y="6055.999999999999" as="targetPoint" />
            <Array as="points">
              <mxPoint x="-1874" y="5902" />
              <mxPoint x="-1874" y="6056" />
            </Array>
          </mxGeometry>
        </mxCell>
        <mxCell id="USVF3LIdqJh89pNJgLnu-344" value="宝箱礼物特效" style="rounded=1;whiteSpace=wrap;html=1;arcSize=40;fontColor=#000000;fillColor=#ffffc0;strokeColor=#FF0000;" vertex="1" parent="1">
          <mxGeometry x="-2108" y="5882" width="120" height="40" as="geometry" />
        </mxCell>
        <mxCell id="USVF3LIdqJh89pNJgLnu-355" style="edgeStyle=orthogonalEdgeStyle;rounded=0;orthogonalLoop=1;jettySize=auto;html=1;strokeColor=#FF0000;" edge="1" parent="1" source="USVF3LIdqJh89pNJgLnu-346">
          <mxGeometry relative="1" as="geometry">
            <mxPoint x="-2430" y="6058" as="targetPoint" />
            <Array as="points">
              <mxPoint x="-1872" y="5972" />
              <mxPoint x="-1872" y="6058" />
            </Array>
          </mxGeometry>
        </mxCell>
        <mxCell id="USVF3LIdqJh89pNJgLnu-346" value=".....特效" style="rounded=1;whiteSpace=wrap;html=1;arcSize=40;fontColor=#000000;fillColor=#ffffc0;strokeColor=#FF0000;" vertex="1" parent="1">
          <mxGeometry x="-2106" y="5952" width="120" height="40" as="geometry" />
        </mxCell>
        <mxCell id="USVF3LIdqJh89pNJgLnu-356" value="风控" style="rounded=1;whiteSpace=wrap;html=1;labelBackgroundColor=none;fillColor=#f8cecc;strokeColor=#b85450;" vertex="1" parent="1">
          <mxGeometry x="-62" y="8316" width="120" height="60" as="geometry" />
        </mxCell>
        <mxCell id="USVF3LIdqJh89pNJgLnu-357" value="风控" style="rounded=1;whiteSpace=wrap;html=1;labelBackgroundColor=none;fillColor=#f8cecc;strokeColor=#b85450;" vertex="1" parent="1">
          <mxGeometry x="1377.5" y="8344" width="120" height="60" as="geometry" />
        </mxCell>
        <mxCell id="USVF3LIdqJh89pNJgLnu-360" value="开关配置" style="rounded=0;whiteSpace=wrap;html=1;fillColor=#f8cecc;strokeColor=#b85450;" vertex="1" parent="1">
          <mxGeometry x="954" y="8184" width="94" height="58" as="geometry" />
        </mxCell>
        <mxCell id="USVF3LIdqJh89pNJgLnu-361" value="礼物面板配置" style="rounded=0;whiteSpace=wrap;html=1;fillColor=#f8cecc;strokeColor=#b85450;" vertex="1" parent="1">
          <mxGeometry x="952" y="8258" width="94" height="58" as="geometry" />
        </mxCell>
        <mxCell id="USVF3LIdqJh89pNJgLnu-362" value="资金账户/商户号等配置" style="rounded=0;whiteSpace=wrap;html=1;fillColor=#f8cecc;strokeColor=#b85450;" vertex="1" parent="1">
          <mxGeometry x="948" y="8338" width="94" height="58" as="geometry" />
        </mxCell>
        <mxCell id="USVF3LIdqJh89pNJgLnu-363" value="运营配置" style="rounded=1;whiteSpace=wrap;html=1;labelBackgroundColor=none;verticalAlign=top;fillColor=#f8cecc;strokeColor=#b85450;" vertex="1" parent="1">
          <mxGeometry x="2376" y="8166" width="128" height="272" as="geometry" />
        </mxCell>
        <mxCell id="USVF3LIdqJh89pNJgLnu-364" value="开关配置" style="rounded=0;whiteSpace=wrap;html=1;fillColor=#f8cecc;strokeColor=#b85450;" vertex="1" parent="1">
          <mxGeometry x="2392" y="8204" width="94" height="58" as="geometry" />
        </mxCell>
        <mxCell id="USVF3LIdqJh89pNJgLnu-365" value="礼物面板配置" style="rounded=0;whiteSpace=wrap;html=1;fillColor=#f8cecc;strokeColor=#b85450;" vertex="1" parent="1">
          <mxGeometry x="2390" y="8278" width="94" height="58" as="geometry" />
        </mxCell>
        <mxCell id="USVF3LIdqJh89pNJgLnu-366" value="资金账户/商户号等配置" style="rounded=0;whiteSpace=wrap;html=1;fillColor=#f8cecc;strokeColor=#b85450;" vertex="1" parent="1">
          <mxGeometry x="2386" y="8358" width="94" height="58" as="geometry" />
        </mxCell>
        <mxCell id="USVF3LIdqJh89pNJgLnu-373" value="发起礼物打赏" style="rounded=1;whiteSpace=wrap;html=1;arcSize=40;fontColor=#000000;fillColor=#ffffc0;strokeColor=#ff0000;" vertex="1" parent="1">
          <mxGeometry x="-884" y="673" width="120" height="40" as="geometry" />
        </mxCell>
        <mxCell id="USVF3LIdqJh89pNJgLnu-374" value="" style="edgeStyle=orthogonalEdgeStyle;html=1;verticalAlign=bottom;endArrow=open;endSize=8;strokeColor=#ff0000;rounded=0;entryX=0.5;entryY=0;entryDx=0;entryDy=0;" edge="1" source="USVF3LIdqJh89pNJgLnu-373" parent="1" target="USVF3LIdqJh89pNJgLnu-413">
          <mxGeometry relative="1" as="geometry">
            <mxPoint x="-965" y="775" as="targetPoint" />
            <Array as="points">
              <mxPoint x="-820" y="759" />
            </Array>
          </mxGeometry>
        </mxCell>
        <mxCell id="USVF3LIdqJh89pNJgLnu-386" value="准入校验" style="rounded=1;whiteSpace=wrap;html=1;arcSize=40;fontColor=#000000;fillColor=#ffffc0;strokeColor=#ff0000;" vertex="1" parent="1">
          <mxGeometry x="-883" y="1066" width="120" height="40" as="geometry" />
        </mxCell>
        <mxCell id="USVF3LIdqJh89pNJgLnu-387" value="" style="edgeStyle=orthogonalEdgeStyle;html=1;verticalAlign=bottom;endArrow=open;endSize=8;strokeColor=#ff0000;rounded=0;entryX=0.5;entryY=0;entryDx=0;entryDy=0;" edge="1" source="USVF3LIdqJh89pNJgLnu-386" parent="1" target="USVF3LIdqJh89pNJgLnu-403">
          <mxGeometry relative="1" as="geometry">
            <mxPoint x="-752" y="1158" as="targetPoint" />
          </mxGeometry>
        </mxCell>
        <mxCell id="USVF3LIdqJh89pNJgLnu-388" value="是否需要进行打赏人校验" style="rhombus;whiteSpace=wrap;html=1;fontColor=#000000;fillColor=#ffffc0;strokeColor=#ff0000;" vertex="1" parent="1">
          <mxGeometry x="-1048" y="1176" width="80" height="40" as="geometry" />
        </mxCell>
        <mxCell id="USVF3LIdqJh89pNJgLnu-389" value="no" style="edgeStyle=orthogonalEdgeStyle;html=1;align=left;verticalAlign=bottom;endArrow=open;endSize=8;strokeColor=#ff0000;rounded=0;" edge="1" source="USVF3LIdqJh89pNJgLnu-388" parent="1">
          <mxGeometry x="-1" relative="1" as="geometry">
            <mxPoint x="-886" y="1382" as="targetPoint" />
            <Array as="points">
              <mxPoint x="-932" y="1196" />
              <mxPoint x="-932" y="1382" />
            </Array>
          </mxGeometry>
        </mxCell>
        <mxCell id="USVF3LIdqJh89pNJgLnu-390" value="yes" style="edgeStyle=orthogonalEdgeStyle;html=1;align=left;verticalAlign=top;endArrow=open;endSize=8;strokeColor=#ff0000;rounded=0;" edge="1" source="USVF3LIdqJh89pNJgLnu-388" parent="1">
          <mxGeometry x="-1" relative="1" as="geometry">
            <mxPoint x="-1008" y="1276" as="targetPoint" />
          </mxGeometry>
        </mxCell>
        <mxCell id="USVF3LIdqJh89pNJgLnu-391" value="打赏人校验" style="rounded=1;whiteSpace=wrap;html=1;arcSize=40;fontColor=#000000;fillColor=#ffffc0;strokeColor=#ff0000;" vertex="1" parent="1">
          <mxGeometry x="-1068" y="1278" width="120" height="40" as="geometry" />
        </mxCell>
        <mxCell id="USVF3LIdqJh89pNJgLnu-392" value="" style="edgeStyle=orthogonalEdgeStyle;html=1;verticalAlign=bottom;endArrow=open;endSize=8;strokeColor=#ff0000;rounded=0;" edge="1" source="USVF3LIdqJh89pNJgLnu-391" parent="1">
          <mxGeometry relative="1" as="geometry">
            <mxPoint x="-1008" y="1378" as="targetPoint" />
          </mxGeometry>
        </mxCell>
        <mxCell id="USVF3LIdqJh89pNJgLnu-401" value="" style="shape=line;html=1;strokeWidth=6;strokeColor=#ff0000;" vertex="1" parent="1">
          <mxGeometry x="-1414" y="1378" width="1352" height="10" as="geometry" />
        </mxCell>
        <mxCell id="USVF3LIdqJh89pNJgLnu-402" value="" style="edgeStyle=orthogonalEdgeStyle;html=1;verticalAlign=bottom;endArrow=open;endSize=8;strokeColor=#ff0000;rounded=0;" edge="1" source="USVF3LIdqJh89pNJgLnu-401" parent="1">
          <mxGeometry relative="1" as="geometry">
            <mxPoint x="-738" y="1466" as="targetPoint" />
          </mxGeometry>
        </mxCell>
        <mxCell id="USVF3LIdqJh89pNJgLnu-403" value="是否需要收赏人校验" style="rhombus;whiteSpace=wrap;html=1;fontColor=#000000;fillColor=#ffffc0;strokeColor=#ff0000;" vertex="1" parent="1">
          <mxGeometry x="-864" y="1178" width="80" height="40" as="geometry" />
        </mxCell>
        <mxCell id="USVF3LIdqJh89pNJgLnu-404" value="no" style="edgeStyle=orthogonalEdgeStyle;html=1;align=left;verticalAlign=bottom;endArrow=open;endSize=8;strokeColor=#ff0000;rounded=0;" edge="1" source="USVF3LIdqJh89pNJgLnu-403" parent="1">
          <mxGeometry x="-1" relative="1" as="geometry">
            <mxPoint x="-712" y="1376" as="targetPoint" />
          </mxGeometry>
        </mxCell>
        <mxCell id="USVF3LIdqJh89pNJgLnu-405" value="yes" style="edgeStyle=orthogonalEdgeStyle;html=1;align=left;verticalAlign=top;endArrow=open;endSize=8;strokeColor=#ff0000;rounded=0;" edge="1" source="USVF3LIdqJh89pNJgLnu-403" parent="1">
          <mxGeometry x="-1" relative="1" as="geometry">
            <mxPoint x="-824" y="1278" as="targetPoint" />
          </mxGeometry>
        </mxCell>
        <mxCell id="USVF3LIdqJh89pNJgLnu-406" value="受赏人校验" style="rounded=1;whiteSpace=wrap;html=1;arcSize=40;fontColor=#000000;fillColor=#ffffc0;strokeColor=#ff0000;" vertex="1" parent="1">
          <mxGeometry x="-882" y="1278" width="120" height="40" as="geometry" />
        </mxCell>
        <mxCell id="USVF3LIdqJh89pNJgLnu-407" value="" style="edgeStyle=orthogonalEdgeStyle;html=1;verticalAlign=bottom;endArrow=open;endSize=8;strokeColor=#ff0000;rounded=0;" edge="1" source="USVF3LIdqJh89pNJgLnu-406" parent="1">
          <mxGeometry relative="1" as="geometry">
            <mxPoint x="-822" y="1378" as="targetPoint" />
          </mxGeometry>
        </mxCell>
        <mxCell id="USVF3LIdqJh89pNJgLnu-408" value="是否需要礼物校验" style="rhombus;whiteSpace=wrap;html=1;fontColor=#000000;fillColor=#ffffc0;strokeColor=#ff0000;" vertex="1" parent="1">
          <mxGeometry x="-648" y="1180" width="80" height="40" as="geometry" />
        </mxCell>
        <mxCell id="USVF3LIdqJh89pNJgLnu-409" value="no" style="edgeStyle=orthogonalEdgeStyle;html=1;align=left;verticalAlign=bottom;endArrow=open;endSize=8;strokeColor=#ff0000;rounded=0;entryX=0.733;entryY=0.4;entryDx=0;entryDy=0;entryPerimeter=0;" edge="1" source="USVF3LIdqJh89pNJgLnu-408" parent="1" target="USVF3LIdqJh89pNJgLnu-401">
          <mxGeometry x="-1" relative="1" as="geometry">
            <mxPoint x="-414" y="1376" as="targetPoint" />
            <Array as="points">
              <mxPoint x="-492" y="1200" />
              <mxPoint x="-492" y="1376" />
              <mxPoint x="-495" y="1376" />
            </Array>
          </mxGeometry>
        </mxCell>
        <mxCell id="USVF3LIdqJh89pNJgLnu-410" value="yes" style="edgeStyle=orthogonalEdgeStyle;html=1;align=left;verticalAlign=top;endArrow=open;endSize=8;strokeColor=#ff0000;rounded=0;" edge="1" source="USVF3LIdqJh89pNJgLnu-408" parent="1">
          <mxGeometry x="-1" relative="1" as="geometry">
            <mxPoint x="-608" y="1280" as="targetPoint" />
          </mxGeometry>
        </mxCell>
        <mxCell id="USVF3LIdqJh89pNJgLnu-411" value="礼物校验" style="rounded=1;whiteSpace=wrap;html=1;arcSize=40;fontColor=#000000;fillColor=#ffffc0;strokeColor=#ff0000;" vertex="1" parent="1">
          <mxGeometry x="-668" y="1282" width="120" height="40" as="geometry" />
        </mxCell>
        <mxCell id="USVF3LIdqJh89pNJgLnu-412" value="" style="edgeStyle=orthogonalEdgeStyle;html=1;verticalAlign=bottom;endArrow=open;endSize=8;strokeColor=#ff0000;rounded=0;" edge="1" source="USVF3LIdqJh89pNJgLnu-411" parent="1">
          <mxGeometry relative="1" as="geometry">
            <mxPoint x="-608" y="1382" as="targetPoint" />
          </mxGeometry>
        </mxCell>
        <mxCell id="USVF3LIdqJh89pNJgLnu-429" style="edgeStyle=orthogonalEdgeStyle;rounded=0;orthogonalLoop=1;jettySize=auto;html=1;" edge="1" parent="1" source="USVF3LIdqJh89pNJgLnu-413" target="USVF3LIdqJh89pNJgLnu-420">
          <mxGeometry relative="1" as="geometry" />
        </mxCell>
        <mxCell id="USVF3LIdqJh89pNJgLnu-430" style="edgeStyle=orthogonalEdgeStyle;rounded=0;orthogonalLoop=1;jettySize=auto;html=1;" edge="1" parent="1" source="USVF3LIdqJh89pNJgLnu-413" target="USVF3LIdqJh89pNJgLnu-422">
          <mxGeometry relative="1" as="geometry" />
        </mxCell>
        <mxCell id="USVF3LIdqJh89pNJgLnu-431" style="edgeStyle=orthogonalEdgeStyle;rounded=0;orthogonalLoop=1;jettySize=auto;html=1;" edge="1" parent="1" source="USVF3LIdqJh89pNJgLnu-413" target="USVF3LIdqJh89pNJgLnu-427">
          <mxGeometry relative="1" as="geometry" />
        </mxCell>
        <mxCell id="USVF3LIdqJh89pNJgLnu-438" style="edgeStyle=orthogonalEdgeStyle;rounded=0;orthogonalLoop=1;jettySize=auto;html=1;" edge="1" parent="1" source="USVF3LIdqJh89pNJgLnu-413" target="USVF3LIdqJh89pNJgLnu-418">
          <mxGeometry relative="1" as="geometry" />
        </mxCell>
        <mxCell id="USVF3LIdqJh89pNJgLnu-413" value="构建打赏关联参数" style="rounded=1;whiteSpace=wrap;html=1;arcSize=40;fontColor=#000000;fillColor=#ffffc0;strokeColor=#ff0000;" vertex="1" parent="1">
          <mxGeometry x="-884" y="759" width="122" height="40" as="geometry" />
        </mxCell>
        <mxCell id="USVF3LIdqJh89pNJgLnu-414" value="" style="edgeStyle=orthogonalEdgeStyle;html=1;verticalAlign=bottom;endArrow=open;endSize=8;strokeColor=#ff0000;rounded=0;entryX=0.5;entryY=0;entryDx=0;entryDy=0;" edge="1" source="USVF3LIdqJh89pNJgLnu-413" parent="1" target="USVF3LIdqJh89pNJgLnu-416">
          <mxGeometry relative="1" as="geometry">
            <mxPoint x="-966" y="879" as="targetPoint" />
          </mxGeometry>
        </mxCell>
        <mxCell id="USVF3LIdqJh89pNJgLnu-416" value="打赏人信息" style="rounded=1;whiteSpace=wrap;html=1;arcSize=40;fontColor=#000000;fillColor=#ffffc0;strokeColor=#ff0000;" vertex="1" parent="1">
          <mxGeometry x="-1180" y="853" width="120" height="40" as="geometry" />
        </mxCell>
        <mxCell id="USVF3LIdqJh89pNJgLnu-417" value="" style="edgeStyle=orthogonalEdgeStyle;html=1;verticalAlign=bottom;endArrow=open;endSize=8;strokeColor=#ff0000;rounded=0;" edge="1" source="USVF3LIdqJh89pNJgLnu-416" parent="1">
          <mxGeometry relative="1" as="geometry">
            <mxPoint x="-1120" y="961" as="targetPoint" />
          </mxGeometry>
        </mxCell>
        <mxCell id="USVF3LIdqJh89pNJgLnu-418" value="受赏人信息" style="rounded=1;whiteSpace=wrap;html=1;arcSize=40;fontColor=#000000;fillColor=#ffffc0;strokeColor=#ff0000;" vertex="1" parent="1">
          <mxGeometry x="-1030" y="849" width="120" height="40" as="geometry" />
        </mxCell>
        <mxCell id="USVF3LIdqJh89pNJgLnu-419" value="" style="edgeStyle=orthogonalEdgeStyle;html=1;verticalAlign=bottom;endArrow=open;endSize=8;strokeColor=#ff0000;rounded=0;" edge="1" source="USVF3LIdqJh89pNJgLnu-418" parent="1">
          <mxGeometry relative="1" as="geometry">
            <mxPoint x="-958" y="939" as="targetPoint" />
            <Array as="points">
              <mxPoint x="-958" y="955" />
            </Array>
          </mxGeometry>
        </mxCell>
        <mxCell id="USVF3LIdqJh89pNJgLnu-420" value="礼物信息" style="rounded=1;whiteSpace=wrap;html=1;arcSize=40;fontColor=#000000;fillColor=#ffffc0;strokeColor=#ff0000;" vertex="1" parent="1">
          <mxGeometry x="-882" y="853" width="120" height="40" as="geometry" />
        </mxCell>
        <mxCell id="USVF3LIdqJh89pNJgLnu-421" value="" style="edgeStyle=orthogonalEdgeStyle;html=1;verticalAlign=bottom;endArrow=open;endSize=8;strokeColor=#ff0000;rounded=0;" edge="1" source="USVF3LIdqJh89pNJgLnu-420" parent="1">
          <mxGeometry relative="1" as="geometry">
            <mxPoint x="-822" y="953" as="targetPoint" />
          </mxGeometry>
        </mxCell>
        <mxCell id="USVF3LIdqJh89pNJgLnu-422" value="直播间信息" style="rounded=1;whiteSpace=wrap;html=1;arcSize=40;fontColor=#000000;fillColor=#ffffc0;strokeColor=#ff0000;" vertex="1" parent="1">
          <mxGeometry x="-738" y="853" width="120" height="40" as="geometry" />
        </mxCell>
        <mxCell id="USVF3LIdqJh89pNJgLnu-423" value="" style="edgeStyle=orthogonalEdgeStyle;html=1;verticalAlign=bottom;endArrow=open;endSize=8;strokeColor=#ff0000;rounded=0;" edge="1" source="USVF3LIdqJh89pNJgLnu-422" parent="1">
          <mxGeometry relative="1" as="geometry">
            <mxPoint x="-674" y="951" as="targetPoint" />
            <Array as="points">
              <mxPoint x="-678" y="951" />
            </Array>
          </mxGeometry>
        </mxCell>
        <mxCell id="USVF3LIdqJh89pNJgLnu-440" style="edgeStyle=orthogonalEdgeStyle;rounded=0;orthogonalLoop=1;jettySize=auto;html=1;entryX=0.916;entryY=0.725;entryDx=0;entryDy=0;entryPerimeter=0;" edge="1" parent="1" source="USVF3LIdqJh89pNJgLnu-427" target="USVF3LIdqJh89pNJgLnu-432">
          <mxGeometry relative="1" as="geometry" />
        </mxCell>
        <mxCell id="USVF3LIdqJh89pNJgLnu-427" value="礼物玩法信息" style="rounded=1;whiteSpace=wrap;html=1;arcSize=40;fontColor=#000000;fillColor=#ffffc0;strokeColor=#ff0000;" vertex="1" parent="1">
          <mxGeometry x="-594" y="851" width="120" height="40" as="geometry" />
        </mxCell>
        <mxCell id="USVF3LIdqJh89pNJgLnu-472" style="edgeStyle=orthogonalEdgeStyle;rounded=0;orthogonalLoop=1;jettySize=auto;html=1;" edge="1" parent="1" source="USVF3LIdqJh89pNJgLnu-432" target="USVF3LIdqJh89pNJgLnu-386">
          <mxGeometry relative="1" as="geometry" />
        </mxCell>
        <mxCell id="USVF3LIdqJh89pNJgLnu-432" value="" style="shape=line;html=1;strokeWidth=6;strokeColor=#ff0000;" vertex="1" parent="1">
          <mxGeometry x="-1170" y="955" width="694" height="10" as="geometry" />
        </mxCell>
        <mxCell id="USVF3LIdqJh89pNJgLnu-435" value="" style="ellipse;html=1;shape=startState;fillColor=#000000;strokeColor=#ff0000;" vertex="1" parent="1">
          <mxGeometry x="-838" y="581" width="30" height="30" as="geometry" />
        </mxCell>
        <mxCell id="USVF3LIdqJh89pNJgLnu-436" value="" style="edgeStyle=orthogonalEdgeStyle;html=1;verticalAlign=bottom;endArrow=open;endSize=8;strokeColor=#ff0000;rounded=0;" edge="1" source="USVF3LIdqJh89pNJgLnu-435" parent="1">
          <mxGeometry relative="1" as="geometry">
            <mxPoint x="-823" y="671" as="targetPoint" />
          </mxGeometry>
        </mxCell>
        <mxCell id="USVF3LIdqJh89pNJgLnu-447" value="是否直播间校验" style="rhombus;whiteSpace=wrap;html=1;fontColor=#000000;fillColor=#ffffc0;strokeColor=#ff0000;" vertex="1" parent="1">
          <mxGeometry x="-456" y="1180" width="80" height="40" as="geometry" />
        </mxCell>
        <mxCell id="USVF3LIdqJh89pNJgLnu-448" value="no" style="edgeStyle=orthogonalEdgeStyle;html=1;align=left;verticalAlign=bottom;endArrow=open;endSize=8;strokeColor=#ff0000;rounded=0;entryX=0.884;entryY=0.9;entryDx=0;entryDy=0;entryPerimeter=0;" edge="1" source="USVF3LIdqJh89pNJgLnu-447" parent="1" target="USVF3LIdqJh89pNJgLnu-401">
          <mxGeometry x="-1" relative="1" as="geometry">
            <mxPoint x="-282" y="1364" as="targetPoint" />
            <Array as="points">
              <mxPoint x="-330" y="1200" />
              <mxPoint x="-330" y="1364" />
              <mxPoint x="-328" y="1364" />
            </Array>
          </mxGeometry>
        </mxCell>
        <mxCell id="USVF3LIdqJh89pNJgLnu-449" value="yes" style="edgeStyle=orthogonalEdgeStyle;html=1;align=left;verticalAlign=top;endArrow=open;endSize=8;strokeColor=#ff0000;rounded=0;" edge="1" source="USVF3LIdqJh89pNJgLnu-447" parent="1">
          <mxGeometry x="-1" relative="1" as="geometry">
            <mxPoint x="-416" y="1280" as="targetPoint" />
          </mxGeometry>
        </mxCell>
        <mxCell id="USVF3LIdqJh89pNJgLnu-450" value="直播间校验" style="rounded=1;whiteSpace=wrap;html=1;arcSize=40;fontColor=#000000;fillColor=#ffffc0;strokeColor=#ff0000;" vertex="1" parent="1">
          <mxGeometry x="-472" y="1280" width="120" height="40" as="geometry" />
        </mxCell>
        <mxCell id="USVF3LIdqJh89pNJgLnu-451" value="" style="edgeStyle=orthogonalEdgeStyle;html=1;verticalAlign=bottom;endArrow=open;endSize=8;strokeColor=#ff0000;rounded=0;" edge="1" source="USVF3LIdqJh89pNJgLnu-450" parent="1">
          <mxGeometry relative="1" as="geometry">
            <mxPoint x="-412" y="1380" as="targetPoint" />
          </mxGeometry>
        </mxCell>
        <mxCell id="USVF3LIdqJh89pNJgLnu-452" value="是否资产校验" style="rhombus;whiteSpace=wrap;html=1;fontColor=#000000;fillColor=#ffffc0;strokeColor=#ff0000;" vertex="1" parent="1">
          <mxGeometry x="-300" y="1180" width="80" height="40" as="geometry" />
        </mxCell>
        <mxCell id="USVF3LIdqJh89pNJgLnu-453" value="no" style="edgeStyle=orthogonalEdgeStyle;html=1;align=left;verticalAlign=bottom;endArrow=open;endSize=8;strokeColor=#ff0000;rounded=0;entryX=0.923;entryY=0.775;entryDx=0;entryDy=0;entryPerimeter=0;" edge="1" source="USVF3LIdqJh89pNJgLnu-452" parent="1" target="USVF3LIdqJh89pNJgLnu-401">
          <mxGeometry x="-1" relative="1" as="geometry">
            <mxPoint x="-76" y="1374" as="targetPoint" />
            <Array as="points">
              <mxPoint x="-160" y="1200" />
              <mxPoint x="-160" y="1374" />
              <mxPoint x="-158" y="1374" />
            </Array>
          </mxGeometry>
        </mxCell>
        <mxCell id="USVF3LIdqJh89pNJgLnu-454" value="yes" style="edgeStyle=orthogonalEdgeStyle;html=1;align=left;verticalAlign=top;endArrow=open;endSize=8;strokeColor=#ff0000;rounded=0;" edge="1" source="USVF3LIdqJh89pNJgLnu-452" parent="1">
          <mxGeometry x="-1" relative="1" as="geometry">
            <mxPoint x="-260" y="1280" as="targetPoint" />
          </mxGeometry>
        </mxCell>
        <mxCell id="USVF3LIdqJh89pNJgLnu-455" value="资产校验" style="rounded=1;whiteSpace=wrap;html=1;arcSize=40;fontColor=#000000;fillColor=#ffffc0;strokeColor=#ff0000;" vertex="1" parent="1">
          <mxGeometry x="-318" y="1282" width="120" height="40" as="geometry" />
        </mxCell>
        <mxCell id="USVF3LIdqJh89pNJgLnu-456" value="" style="edgeStyle=orthogonalEdgeStyle;html=1;verticalAlign=bottom;endArrow=open;endSize=8;strokeColor=#ff0000;rounded=0;" edge="1" source="USVF3LIdqJh89pNJgLnu-455" parent="1">
          <mxGeometry relative="1" as="geometry">
            <mxPoint x="-258" y="1382" as="targetPoint" />
          </mxGeometry>
        </mxCell>
        <mxCell id="USVF3LIdqJh89pNJgLnu-457" value="是否风控合规校验" style="rhombus;whiteSpace=wrap;html=1;fontColor=#000000;fillColor=#ffffc0;strokeColor=#ff0000;" vertex="1" parent="1">
          <mxGeometry x="-1192" y="1178" width="80" height="40" as="geometry" />
        </mxCell>
        <mxCell id="USVF3LIdqJh89pNJgLnu-458" value="no" style="edgeStyle=orthogonalEdgeStyle;html=1;align=left;verticalAlign=bottom;endArrow=open;endSize=8;strokeColor=#ff0000;rounded=0;entryX=0.186;entryY=0.483;entryDx=0;entryDy=0;entryPerimeter=0;" edge="1" source="USVF3LIdqJh89pNJgLnu-457" parent="1" target="USVF3LIdqJh89pNJgLnu-401">
          <mxGeometry x="-1" relative="1" as="geometry">
            <mxPoint x="-1012" y="1198" as="targetPoint" />
            <Array as="points">
              <mxPoint x="-1073" y="1198" />
            </Array>
          </mxGeometry>
        </mxCell>
        <mxCell id="USVF3LIdqJh89pNJgLnu-459" value="yes" style="edgeStyle=orthogonalEdgeStyle;html=1;align=left;verticalAlign=top;endArrow=open;endSize=8;strokeColor=#ff0000;rounded=0;" edge="1" source="USVF3LIdqJh89pNJgLnu-457" parent="1">
          <mxGeometry x="-1" relative="1" as="geometry">
            <mxPoint x="-1152" y="1278" as="targetPoint" />
          </mxGeometry>
        </mxCell>
        <mxCell id="USVF3LIdqJh89pNJgLnu-460" value="风控合规校验" style="rounded=1;whiteSpace=wrap;html=1;arcSize=40;fontColor=#000000;fillColor=#ffffc0;strokeColor=#ff0000;" vertex="1" parent="1">
          <mxGeometry x="-1214" y="1278" width="120" height="40" as="geometry" />
        </mxCell>
        <mxCell id="USVF3LIdqJh89pNJgLnu-461" value="" style="edgeStyle=orthogonalEdgeStyle;html=1;verticalAlign=bottom;endArrow=open;endSize=8;strokeColor=#ff0000;rounded=0;" edge="1" source="USVF3LIdqJh89pNJgLnu-460" parent="1">
          <mxGeometry relative="1" as="geometry">
            <mxPoint x="-1154" y="1378" as="targetPoint" />
          </mxGeometry>
        </mxCell>
        <mxCell id="USVF3LIdqJh89pNJgLnu-462" value="是否金额数量校验" style="rhombus;whiteSpace=wrap;html=1;fontColor=#000000;fillColor=#ffffc0;strokeColor=#ff0000;" vertex="1" parent="1">
          <mxGeometry x="-1380" y="1182" width="80" height="40" as="geometry" />
        </mxCell>
        <mxCell id="USVF3LIdqJh89pNJgLnu-463" value="no" style="edgeStyle=orthogonalEdgeStyle;html=1;align=left;verticalAlign=bottom;endArrow=open;endSize=8;strokeColor=#ff0000;rounded=0;entryX=0.121;entryY=1.2;entryDx=0;entryDy=0;entryPerimeter=0;" edge="1" source="USVF3LIdqJh89pNJgLnu-462" parent="1" target="USVF3LIdqJh89pNJgLnu-401">
          <mxGeometry x="-1" relative="1" as="geometry">
            <mxPoint x="-1200" y="1202" as="targetPoint" />
            <Array as="points">
              <mxPoint x="-1250" y="1202" />
            </Array>
          </mxGeometry>
        </mxCell>
        <mxCell id="USVF3LIdqJh89pNJgLnu-464" value="yes" style="edgeStyle=orthogonalEdgeStyle;html=1;align=left;verticalAlign=top;endArrow=open;endSize=8;strokeColor=#ff0000;rounded=0;" edge="1" source="USVF3LIdqJh89pNJgLnu-462" parent="1">
          <mxGeometry x="-1" relative="1" as="geometry">
            <mxPoint x="-1340" y="1282" as="targetPoint" />
          </mxGeometry>
        </mxCell>
        <mxCell id="USVF3LIdqJh89pNJgLnu-465" value="金额数量校验" style="rounded=1;whiteSpace=wrap;html=1;arcSize=40;fontColor=#000000;fillColor=#ffffc0;strokeColor=#ff0000;" vertex="1" parent="1">
          <mxGeometry x="-1402" y="1282" width="120" height="40" as="geometry" />
        </mxCell>
        <mxCell id="USVF3LIdqJh89pNJgLnu-466" value="" style="edgeStyle=orthogonalEdgeStyle;html=1;verticalAlign=bottom;endArrow=open;endSize=8;strokeColor=#ff0000;rounded=0;" edge="1" source="USVF3LIdqJh89pNJgLnu-465" parent="1">
          <mxGeometry relative="1" as="geometry">
            <mxPoint x="-1342" y="1382" as="targetPoint" />
          </mxGeometry>
        </mxCell>
        <mxCell id="USVF3LIdqJh89pNJgLnu-467" value="校验是否通过" style="rhombus;whiteSpace=wrap;html=1;fontColor=#000000;fillColor=#ffffc0;strokeColor=#ff0000;" vertex="1" parent="1">
          <mxGeometry x="-780" y="1468" width="80" height="40" as="geometry" />
        </mxCell>
        <mxCell id="USVF3LIdqJh89pNJgLnu-468" value="no" style="edgeStyle=orthogonalEdgeStyle;html=1;align=left;verticalAlign=bottom;endArrow=open;endSize=8;strokeColor=#ff0000;rounded=0;" edge="1" source="USVF3LIdqJh89pNJgLnu-467" parent="1">
          <mxGeometry x="-1" relative="1" as="geometry">
            <mxPoint x="-600" y="1488" as="targetPoint" />
          </mxGeometry>
        </mxCell>
        <mxCell id="USVF3LIdqJh89pNJgLnu-469" value="yes" style="edgeStyle=orthogonalEdgeStyle;html=1;align=left;verticalAlign=top;endArrow=open;endSize=8;strokeColor=#ff0000;rounded=0;" edge="1" source="USVF3LIdqJh89pNJgLnu-467" parent="1">
          <mxGeometry x="-1" relative="1" as="geometry">
            <mxPoint x="-740" y="1568" as="targetPoint" />
          </mxGeometry>
        </mxCell>
        <mxCell id="USVF3LIdqJh89pNJgLnu-470" value="" style="ellipse;html=1;shape=endState;fillColor=#000000;strokeColor=#ff0000;" vertex="1" parent="1">
          <mxGeometry x="-600" y="1476" width="30" height="30" as="geometry" />
        </mxCell>
        <mxCell id="USVF3LIdqJh89pNJgLnu-473" value="构建交易信息" style="rounded=1;whiteSpace=wrap;html=1;arcSize=40;fontColor=#000000;fillColor=#ffffc0;strokeColor=#ff0000;" vertex="1" parent="1">
          <mxGeometry x="-802" y="1570" width="120" height="40" as="geometry" />
        </mxCell>
        <mxCell id="USVF3LIdqJh89pNJgLnu-474" value="" style="edgeStyle=orthogonalEdgeStyle;html=1;verticalAlign=bottom;endArrow=open;endSize=8;strokeColor=#ff0000;rounded=0;" edge="1" source="USVF3LIdqJh89pNJgLnu-473" parent="1">
          <mxGeometry relative="1" as="geometry">
            <mxPoint x="-742" y="1670" as="targetPoint" />
          </mxGeometry>
        </mxCell>
        <mxCell id="USVF3LIdqJh89pNJgLnu-475" value="支付" style="rounded=1;whiteSpace=wrap;html=1;arcSize=40;fontColor=#000000;fillColor=#ffffc0;strokeColor=#ff0000;" vertex="1" parent="1">
          <mxGeometry x="-801" y="1668" width="120" height="40" as="geometry" />
        </mxCell>
        <mxCell id="USVF3LIdqJh89pNJgLnu-476" value="" style="edgeStyle=orthogonalEdgeStyle;html=1;verticalAlign=bottom;endArrow=open;endSize=8;strokeColor=#ff0000;rounded=0;" edge="1" source="USVF3LIdqJh89pNJgLnu-475" parent="1">
          <mxGeometry relative="1" as="geometry">
            <mxPoint x="-741" y="1768" as="targetPoint" />
          </mxGeometry>
        </mxCell>
        <mxCell id="USVF3LIdqJh89pNJgLnu-477" value="支付是否成功" style="rhombus;whiteSpace=wrap;html=1;fontColor=#000000;fillColor=#ffffc0;strokeColor=#ff0000;" vertex="1" parent="1">
          <mxGeometry x="-784" y="1766" width="80" height="40" as="geometry" />
        </mxCell>
        <mxCell id="USVF3LIdqJh89pNJgLnu-478" value="no" style="edgeStyle=orthogonalEdgeStyle;html=1;align=left;verticalAlign=bottom;endArrow=open;endSize=8;strokeColor=#ff0000;rounded=0;entryX=0.5;entryY=1;entryDx=0;entryDy=0;" edge="1" source="USVF3LIdqJh89pNJgLnu-477" parent="1" target="USVF3LIdqJh89pNJgLnu-470">
          <mxGeometry x="-1" relative="1" as="geometry">
            <mxPoint x="-604" y="1786" as="targetPoint" />
          </mxGeometry>
        </mxCell>
        <mxCell id="USVF3LIdqJh89pNJgLnu-479" value="yes" style="edgeStyle=orthogonalEdgeStyle;html=1;align=left;verticalAlign=top;endArrow=open;endSize=8;strokeColor=#ff0000;rounded=0;" edge="1" source="USVF3LIdqJh89pNJgLnu-477" parent="1">
          <mxGeometry x="-1" relative="1" as="geometry">
            <mxPoint x="-744" y="1866" as="targetPoint" />
          </mxGeometry>
        </mxCell>
        <mxCell id="USVF3LIdqJh89pNJgLnu-482" value="玩法后置信息处理" style="rounded=1;whiteSpace=wrap;html=1;arcSize=40;fontColor=#000000;fillColor=#ffffc0;strokeColor=#ff0000;" vertex="1" parent="1">
          <mxGeometry x="-801" y="1870" width="120" height="40" as="geometry" />
        </mxCell>
        <mxCell id="USVF3LIdqJh89pNJgLnu-483" value="" style="edgeStyle=orthogonalEdgeStyle;html=1;verticalAlign=bottom;endArrow=open;endSize=8;strokeColor=#ff0000;rounded=0;" edge="1" source="USVF3LIdqJh89pNJgLnu-482" parent="1">
          <mxGeometry relative="1" as="geometry">
            <mxPoint x="-741" y="1970" as="targetPoint" />
          </mxGeometry>
        </mxCell>
        <mxCell id="USVF3LIdqJh89pNJgLnu-484" value="本地视角特效处理" style="rounded=1;whiteSpace=wrap;html=1;arcSize=40;fontColor=#000000;fillColor=#ffffc0;strokeColor=#ff0000;" vertex="1" parent="1">
          <mxGeometry x="-801" y="1970" width="120" height="40" as="geometry" />
        </mxCell>
        <mxCell id="USVF3LIdqJh89pNJgLnu-485" value="" style="edgeStyle=orthogonalEdgeStyle;html=1;verticalAlign=bottom;endArrow=open;endSize=8;strokeColor=#ff0000;rounded=0;" edge="1" source="USVF3LIdqJh89pNJgLnu-484" parent="1">
          <mxGeometry relative="1" as="geometry">
            <mxPoint x="-741" y="2070" as="targetPoint" />
          </mxGeometry>
        </mxCell>
        <mxCell id="USVF3LIdqJh89pNJgLnu-486" value="发送打赏成功kafka消息" style="rounded=1;whiteSpace=wrap;html=1;arcSize=40;fontColor=#000000;fillColor=#ffffc0;strokeColor=#ff0000;" vertex="1" parent="1">
          <mxGeometry x="-804" y="2070" width="120" height="40" as="geometry" />
        </mxCell>
        <mxCell id="USVF3LIdqJh89pNJgLnu-487" value="" style="edgeStyle=orthogonalEdgeStyle;html=1;verticalAlign=bottom;endArrow=open;endSize=8;strokeColor=#ff0000;rounded=0;" edge="1" source="USVF3LIdqJh89pNJgLnu-486" parent="1">
          <mxGeometry relative="1" as="geometry">
            <mxPoint x="-582" y="1784" as="targetPoint" />
          </mxGeometry>
        </mxCell>
        <mxCell id="USVF3LIdqJh89pNJgLnu-494" value="消费打赏功能消息" style="rounded=1;whiteSpace=wrap;html=1;arcSize=40;fontColor=#000000;fillColor=#ffffc0;strokeColor=#ff0000;" vertex="1" parent="1">
          <mxGeometry x="-1300" y="1814" width="120" height="40" as="geometry" />
        </mxCell>
        <mxCell id="USVF3LIdqJh89pNJgLnu-495" value="" style="edgeStyle=orthogonalEdgeStyle;html=1;verticalAlign=bottom;endArrow=open;endSize=8;strokeColor=#ff0000;rounded=0;" edge="1" source="USVF3LIdqJh89pNJgLnu-494" parent="1">
          <mxGeometry relative="1" as="geometry">
            <mxPoint x="-1240" y="1914" as="targetPoint" />
          </mxGeometry>
        </mxCell>
        <mxCell id="USVF3LIdqJh89pNJgLnu-496" value="" style="ellipse;html=1;shape=startState;fillColor=#000000;strokeColor=#ff0000;" vertex="1" parent="1">
          <mxGeometry x="-1252" y="1718" width="30" height="30" as="geometry" />
        </mxCell>
        <mxCell id="USVF3LIdqJh89pNJgLnu-497" value="" style="edgeStyle=orthogonalEdgeStyle;html=1;verticalAlign=bottom;endArrow=open;endSize=8;strokeColor=#ff0000;rounded=0;" edge="1" source="USVF3LIdqJh89pNJgLnu-496" parent="1">
          <mxGeometry relative="1" as="geometry">
            <mxPoint x="-1237" y="1808" as="targetPoint" />
          </mxGeometry>
        </mxCell>
        <mxCell id="USVF3LIdqJh89pNJgLnu-498" value="发送异步特效消息" style="rounded=1;whiteSpace=wrap;html=1;arcSize=40;fontColor=#000000;fillColor=#ffffc0;strokeColor=#ff0000;" vertex="1" parent="1">
          <mxGeometry x="-1300" y="1914" width="120" height="40" as="geometry" />
        </mxCell>
        <mxCell id="USVF3LIdqJh89pNJgLnu-499" value="" style="edgeStyle=orthogonalEdgeStyle;html=1;verticalAlign=bottom;endArrow=open;endSize=8;strokeColor=#ff0000;rounded=0;" edge="1" source="USVF3LIdqJh89pNJgLnu-498" parent="1">
          <mxGeometry relative="1" as="geometry">
            <mxPoint x="-1240" y="2014" as="targetPoint" />
          </mxGeometry>
        </mxCell>
        <mxCell id="USVF3LIdqJh89pNJgLnu-500" value="发送榜单/经验值等通知" style="rounded=1;whiteSpace=wrap;html=1;arcSize=40;fontColor=#000000;fillColor=#ffffc0;strokeColor=#ff0000;" vertex="1" parent="1">
          <mxGeometry x="-1300" y="2010" width="120" height="40" as="geometry" />
        </mxCell>
        <mxCell id="USVF3LIdqJh89pNJgLnu-501" value="" style="edgeStyle=orthogonalEdgeStyle;html=1;verticalAlign=bottom;endArrow=open;endSize=8;strokeColor=#ff0000;rounded=0;" edge="1" source="USVF3LIdqJh89pNJgLnu-500" parent="1">
          <mxGeometry relative="1" as="geometry">
            <mxPoint x="-1240" y="2110" as="targetPoint" />
          </mxGeometry>
        </mxCell>
        <mxCell id="USVF3LIdqJh89pNJgLnu-504" value="" style="ellipse;html=1;shape=endState;fillColor=#000000;strokeColor=#ff0000;" vertex="1" parent="1">
          <mxGeometry x="-1256" y="2106" width="30" height="30" as="geometry" />
        </mxCell>
        <mxCell id="USVF3LIdqJh89pNJgLnu-505" value="异步处理" style="text;align=center;fontStyle=1;verticalAlign=middle;spacingLeft=3;spacingRight=3;strokeColor=none;rotatable=0;points=[[0,0.5],[1,0.5]];portConstraint=eastwest;html=1;" vertex="1" parent="1">
          <mxGeometry x="-1414" y="1724" width="80" height="26" as="geometry" />
        </mxCell>
        <mxCell id="USVF3LIdqJh89pNJgLnu-506" value="打赏接口" style="text;strokeColor=none;fillColor=none;align=left;verticalAlign=top;spacingLeft=4;spacingRight=4;overflow=hidden;rotatable=0;points=[[0,0.5],[1,0.5]];portConstraint=eastwest;whiteSpace=wrap;html=1;" vertex="1" parent="1">
          <mxGeometry x="-1190" y="614" width="100" height="26" as="geometry" />
        </mxCell>
      </root>
    </mxGraphModel>
  </diagram>
</mxfile>
